# Alias OBJ Model File
# Exported from SketchUp, (c) 2000-2012 Trimble Navigation Limited
# File units = meters

mtllib log.mtl

g Mesh1 Model

usemtl FrontColor
v 0.403445 0.10385 0.0371751
vt 15.8837 -1.46359
vn 0 1 -0
v 0.580222 0.10385 -0.0360482
vt 22.8434 1.41922
v 0.653445 0.10385 -0.212825
vt 25.7262 8.37893
v 0.580222 0.10385 -0.389602
vt 22.8434 15.3386
v 0.403445 0.10385 -0.462825
vt 15.8837 18.2215
v 0.226668 0.10385 -0.389602
vt 8.92395 15.3386
v 0.153445 0.10385 -0.212825
vt 6.04114 8.37893
v 0.226668 0.10385 -0.0360482
vt 8.92395 1.41922
f 1/1/1 2/2/1 3/3/1 4/4/1 5/5/1 6/6/1 7/7/1 8/8/1 

vt 14.1145 4.08859
vn 0.382683 0 0.92388
vt 21.6476 4.08859
v 0.580222 3.55385 -0.0360482
vt 21.6476 139.915
v 0.403445 3.55385 0.0371751
vt 14.1145 139.915
f 1/9/2 2/10/2 9/11/2 10/12/2 

vt 10.053 4.08859
vn 0.92388 0 0.382683
vt 17.5861 4.08859
v 0.653445 3.55385 -0.212825
vt 17.5861 139.915
vt 10.053 139.915
f 2/13/3 3/14/3 11/15/3 9/16/3 

vt -2.10386 4.08859
vn 0.92388 0 -0.382683
vt 5.42928 4.08859
v 0.580222 3.55385 -0.389602
vt 5.42928 139.915
vt -2.10386 139.915
f 3/17/4 4/18/4 12/19/4 11/20/4 

vt -15.2347 4.08859
vn 0.382683 0 -0.92388
vt -7.70154 4.08859
v 0.403445 3.55385 -0.462825
vt -7.70154 139.915
vt -15.2347 139.915
f 4/21/5 5/22/5 13/23/5 12/24/5 

vt -21.6476 4.08859
vn -0.382683 0 -0.92388
vt -14.1145 4.08859
v 0.226668 3.55385 -0.389602
vt -14.1145 139.915
vt -21.6476 139.915
f 5/25/6 6/26/6 14/27/6 13/28/6 

vt -17.5861 4.08859
vn -0.92388 0 -0.382683
vt -10.053 4.08859
v 0.153445 3.55385 -0.212825
vt -10.053 139.915
vt -17.5861 139.915
f 6/29/7 7/30/7 15/31/7 14/32/7 

vt -5.42928 4.08859
vn -0.92388 0 0.382683
vt 2.10386 4.08859
v 0.226668 3.55385 -0.0360482
vt 2.10386 139.915
vt -5.42928 139.915
f 7/33/8 8/34/8 16/35/8 15/36/8 

vt 7.70154 4.08859
vn -0.382683 0 0.92388
vt 15.2347 4.08859
vt 15.2347 139.915
vt 7.70154 139.915
f 8/37/9 1/38/9 10/39/9 16/40/9 

f 10/1/1 9/2/1 11/3/1 12/4/1 13/5/1 14/6/1 15/7/1 16/8/1 

