<?xml version="1.0" encoding="UTF-8" standalone="no" ?>
<COLLADA xmlns="http://www.collada.org/2005/11/COLLADASchema" version="1.4.1">
    <asset>
        <contributor>
            <authoring_tool>SketchUp 23.1.341</authoring_tool>
        </contributor>
        <created>2026-06-14T10:01:51Z</created>
        <modified>2026-06-14T10:01:51Z</modified>
        <unit meter="0.0254000" name="inch" />
        <up_axis>Z_UP</up_axis>
    </asset>
    <library_cameras>
        <camera id="ID1" name="skp_camera_Last_Saved_SketchUp_View">
            <optics>
                <technique_common>
                    <perspective>
                        <yfov>35.0000000</yfov>
                        <aspect_ratio>0.0000000</aspect_ratio>
                        <znear>1.0000000</znear>
                        <zfar>1000.0000000</zfar>
                    </perspective>
                </technique_common>
            </optics>
        </camera>
    </library_cameras>
    <library_visual_scenes>
        <visual_scene id="ID2">
            <node name="SketchUp">
                <instance_geometry url="#ID43">
                    <bind_material>
                        <technique_common>
                            <instance_material symbol="Material2" target="#ID29">
                                <bind_vertex_input semantic="UVSET0" input_semantic="TEXCOORD" input_set="0" />
                            </instance_material>
                        </technique_common>
                    </bind_material>
                </instance_geometry>
                <instance_geometry url="#ID49">
                    <bind_material>
                        <technique_common>
                            <instance_material symbol="Material2" target="#ID50">
                                <bind_vertex_input semantic="UVSET0" input_semantic="TEXCOORD" input_set="0" />
                            </instance_material>
                        </technique_common>
                    </bind_material>
                </instance_geometry>
                <instance_geometry url="#ID57">
                    <bind_material>
                        <technique_common>
                            <instance_material symbol="Material2" target="#ID29">
                                <bind_vertex_input semantic="UVSET0" input_semantic="TEXCOORD" input_set="0" />
                            </instance_material>
                        </technique_common>
                    </bind_material>
                </instance_geometry>
                <instance_geometry url="#ID63">
                    <bind_material>
                        <technique_common>
                            <instance_material symbol="Material2" target="#ID29">
                                <bind_vertex_input semantic="UVSET0" input_semantic="TEXCOORD" input_set="0" />
                            </instance_material>
                            <instance_material symbol="Material3" target="#ID64">
                                <bind_vertex_input semantic="UVSET0" input_semantic="TEXCOORD" input_set="0" />
                            </instance_material>
                        </technique_common>
                    </bind_material>
                </instance_geometry>
                <instance_geometry url="#ID71">
                    <bind_material>
                        <technique_common>
                            <instance_material symbol="Material2" target="#ID29">
                                <bind_vertex_input semantic="UVSET0" input_semantic="TEXCOORD" input_set="0" />
                            </instance_material>
                            <instance_material symbol="Material3" target="#ID50">
                                <bind_vertex_input semantic="UVSET0" input_semantic="TEXCOORD" input_set="0" />
                            </instance_material>
                        </technique_common>
                    </bind_material>
                </instance_geometry>
                <node name="skp_camera_Last_Saved_SketchUp_View">
                    <matrix>0.8288563 -0.1373294 0.5423447 292.9597473 0.5594615 0.2034570 -0.8034974 -310.6831055 0.0000000 0.9694049 0.2454672 137.0808716 0.0000000 0.0000000 0.0000000 1.0000000</matrix>
                    <instance_camera url="#ID1" />
                </node>
                <node id="ID3" name="instance_0">
                    <matrix>1.0000000 0.0000000 0.0000000 18.8078374 0.0000000 1.0000000 0.0000000 -23.8896587 0.0000000 0.0000000 1.0000000 1.3043994 0.0000000 0.0000000 0.0000000 1.0000000</matrix>
                    <instance_node url="#ID4" />
                </node>
                <node id="ID13" name="instance_1">
                    <matrix>0.7071068 -0.7071068 -0.0000000 30.1916891 0.7071068 0.7071068 0.0000000 -3.6501849 -0.0000000 -0.0000000 1.0000000 1.3043994 0.0000000 0.0000000 0.0000000 1.0000000</matrix>
                    <instance_node url="#ID4" />
                </node>
                <node id="ID14" name="instance_2">
                    <matrix>0.0000000 -1.0000000 -0.0000000 23.9298186 1.0000000 0.0000000 0.0000000 18.7108830 -0.0000000 -0.0000000 1.0000000 1.3043994 0.0000000 0.0000000 0.0000000 1.0000000</matrix>
                    <instance_node url="#ID4" />
                </node>
                <node id="ID15" name="instance_3">
                    <matrix>-0.7071068 -0.7071068 -0.0000000 3.6903447 0.7071068 -0.7071068 0.0000000 30.0947347 -0.0000000 -0.0000000 1.0000000 1.3043994 0.0000000 0.0000000 0.0000000 1.0000000</matrix>
                    <instance_node url="#ID4" />
                </node>
                <node id="ID16" name="instance_4">
                    <matrix>-1.0000000 -0.0000000 -0.0000000 -18.6707232 0.0000000 -1.0000000 -0.0000000 23.8328641 -0.0000000 -0.0000000 1.0000000 1.3043994 0.0000000 0.0000000 0.0000000 1.0000000</matrix>
                    <instance_node url="#ID4" />
                </node>
                <node id="ID17" name="instance_5">
                    <matrix>-0.7071068 0.7071068 -0.0000000 -30.0545748 -0.7071068 -0.7071068 -0.0000000 3.5933903 -0.0000000 0.0000000 1.0000000 1.3043994 0.0000000 0.0000000 0.0000000 1.0000000</matrix>
                    <instance_node url="#ID4" />
                </node>
                <node id="ID18" name="instance_6">
                    <matrix>0.7071068 0.7071068 0.0000000 -3.5532305 -0.7071068 0.7071068 -0.0000000 -30.1515292 -0.0000000 0.0000000 1.0000000 1.3043994 0.0000000 0.0000000 0.0000000 1.0000000</matrix>
                    <instance_node url="#ID4" />
                </node>
                <node id="ID19" name="instance_7">
                    <matrix>0.0000000 1.0000000 -0.0000000 -23.7927043 -1.0000000 0.0000000 -0.0000000 -18.7676776 -0.0000000 0.0000000 1.0000000 1.3043994 0.0000000 0.0000000 0.0000000 1.0000000</matrix>
                    <instance_node url="#ID4" />
                </node>
                <node id="ID20" name="instance_8">
                    <matrix>-0.3826834 0.0000000 0.9238795 -16.4908501 0.9238795 -0.0000000 0.3826834 -21.9686218 0.0000000 1.0000000 0.0000000 36.7512027 0.0000000 0.0000000 0.0000000 1.0000000</matrix>
                    <instance_node url="#ID21" />
                </node>
                <node id="ID40" name="instance_9">
                    <matrix>-0.9238795 0.0000000 -0.3826834 21.7631840 -0.3826834 0.0000000 0.9238795 -16.5759452 0.0000000 1.0000000 0.0000000 36.7512027 0.0000000 0.0000000 0.0000000 1.0000000</matrix>
                    <instance_node url="#ID21" />
                </node>
                <node id="ID41" name="instance_10">
                    <matrix>0.3826834 0.0000000 -0.9238795 16.3185537 -0.9238795 0.0000000 -0.3826834 22.3845829 0.0000000 1.0000000 0.0000000 36.7512027 0.0000000 0.0000000 0.0000000 1.0000000</matrix>
                    <instance_node url="#ID21" />
                </node>
                <node id="ID42" name="instance_11">
                    <matrix>0.9238795 -0.0000000 0.3826834 -21.9388849 0.3826834 0.0000000 -0.9238795 16.5031675 0.0000000 1.0000000 0.0000000 36.7512027 0.0000000 0.0000000 0.0000000 1.0000000</matrix>
                    <instance_node url="#ID21" />
                </node>
            </node>
        </visual_scene>
    </library_visual_scenes>
    <library_nodes>
        <node id="ID4" name="Component_1">
            <instance_geometry url="#ID5">
                <bind_material>
                    <technique_common>
                        <instance_material symbol="Material2" target="#ID6">
                            <bind_vertex_input semantic="UVSET0" input_semantic="TEXCOORD" input_set="0" />
                        </instance_material>
                    </technique_common>
                </bind_material>
            </instance_geometry>
        </node>
        <node id="ID21" name="Component_2">
            <instance_geometry url="#ID22">
                <bind_material>
                    <technique_common>
                        <instance_material symbol="Material2" target="#ID23">
                            <bind_vertex_input semantic="UVSET0" input_semantic="TEXCOORD" input_set="0" />
                        </instance_material>
                        <instance_material symbol="Material3" target="#ID29">
                            <bind_vertex_input semantic="UVSET0" input_semantic="TEXCOORD" input_set="0" />
                        </instance_material>
                    </technique_common>
                </bind_material>
            </instance_geometry>
            <instance_geometry url="#ID32">
                <bind_material>
                    <technique_common>
                        <instance_material symbol="Material2" target="#ID29">
                            <bind_vertex_input semantic="UVSET0" input_semantic="TEXCOORD" input_set="0" />
                        </instance_material>
                        <instance_material symbol="Material3" target="#ID33">
                            <bind_vertex_input semantic="UVSET0" input_semantic="TEXCOORD" input_set="0" />
                        </instance_material>
                    </technique_common>
                </bind_material>
            </instance_geometry>
        </node>
    </library_nodes>
    <library_geometries>
        <geometry id="ID5">
            <mesh>
                <source id="ID8">
                    <float_array id="ID11" count="1440">0.5783324 5.2596909 4.2759273 9.7163173 22.6745203 1.8286782 2.2210184 4.5792680 1.8286782 8.0736313 23.3549432 4.2759273 8.0736313 23.3549432 4.2759273 0.5783324 5.2596909 4.2759273 9.7163173 22.6745203 1.8286782 2.2210184 4.5792680 1.8286782 17.5739189 19.4197952 0.9347660 12.1366023 21.6720055 0.3161951 14.9159970 20.5207425 0.0000000 9.7163173 22.6745203 1.8286782 19.6507890 18.5595274 2.9588635 8.0736313 23.3549432 4.2759273 20.7874976 18.0886873 5.7223076 7.4925796 23.5956227 7.2347907 20.7874976 18.0886873 8.7472739 8.0736313 23.3549432 10.1936542 19.6507890 18.5595274 11.5107180 9.7163173 22.6745203 12.6409033 17.5739189 19.4197952 13.5348155 12.1366023 21.6720055 14.1533864 14.9159970 20.5207425 14.4695815 14.9159970 20.5207425 14.4695815 17.5739189 19.4197952 13.5348155 12.1366023 21.6720055 14.1533864 9.7163173 22.6745203 12.6409033 19.6507890 18.5595274 11.5107180 8.0736313 23.3549432 10.1936542 20.7874976 18.0886873 8.7472739 7.4925796 23.5956227 7.2347907 20.7874976 18.0886873 5.7223076 8.0736313 23.3549432 4.2759273 19.6507890 18.5595274 2.9588635 9.7163173 22.6745203 1.8286782 17.5739189 19.4197952 0.9347660 12.1366023 21.6720055 0.3161951 14.9159970 20.5207425 0.0000000 8.0736313 23.3549432 4.2759273 9.9430924 23.6359584 1.8286782 9.7163173 22.6745203 1.8286782 8.1694880 23.7613382 4.2759273 8.1694880 23.7613382 4.2759273 8.0736313 23.3549432 4.2759273 9.9430924 23.6359584 1.8286782 9.7163173 22.6745203 1.8286782 9.7163173 22.6745203 1.8286782 4.6413034 3.5767532 0.3161951 2.2210184 4.5792680 1.8286782 12.1366023 21.6720055 0.3161951 12.1366023 21.6720055 0.3161951 9.7163173 22.6745203 1.8286782 4.6413034 3.5767532 0.3161951 2.2210184 4.5792680 1.8286782 10.0786200 1.3245429 0.9347660 4.6413034 3.5767532 0.3161951 7.4206981 2.4254902 0.0000000 2.2210184 4.5792680 1.8286782 12.1554901 0.4642752 2.9588635 0.5783324 5.2596909 4.2759273 13.2921987 -0.0065650 5.7223076 -0.0027193 5.5003704 7.2347907 13.2921987 -0.0065650 8.7472739 0.5783324 5.2596909 10.1936542 12.1554901 0.4642752 11.5107180 2.2210184 4.5792680 12.6409033 10.0786200 1.3245429 13.5348155 4.6413034 3.5767532 14.1533864 7.4206981 2.4254902 14.4695815 7.4206981 2.4254902 14.4695815 10.0786200 1.3245429 13.5348155 4.6413034 3.5767532 14.1533864 2.2210184 4.5792680 12.6409033 12.1554901 0.4642752 11.5107180 0.5783324 5.2596909 10.1936542 13.2921987 -0.0065650 8.7472739 -0.0027193 5.5003704 7.2347907 13.2921987 -0.0065650 5.7223076 0.5783324 5.2596909 4.2759273 12.1554901 0.4642752 2.9588635 2.2210184 4.5792680 1.8286782 10.0786200 1.3245429 0.9347660 4.6413034 3.5767532 0.3161951 7.4206981 2.4254902 0.0000000 -0.0027193 5.5003704 7.2347907 8.0736313 23.3549432 4.2759273 0.5783324 5.2596909 4.2759273 7.4925796 23.5956227 7.2347907 7.4925796 23.5956227 7.2347907 -0.0027193 5.5003704 7.2347907 8.0736313 23.3549432 4.2759273 0.5783324 5.2596909 4.2759273 8.0736313 23.3549432 10.1936542 -0.0027193 5.5003704 7.2347907 0.5783324 5.2596909 10.1936542 7.4925796 23.5956227 7.2347907 7.4925796 23.5956227 7.2347907 8.0736313 23.3549432 10.1936542 -0.0027193 5.5003704 7.2347907 0.5783324 5.2596909 10.1936542 8.1694880 23.7613382 10.1936542 7.4925796 23.5956227 7.2347907 8.0736313 23.3549432 10.1936542 7.5421278 23.8056876 7.2347907 7.5421278 23.8056876 7.2347907 8.1694880 23.7613382 10.1936542 7.4925796 23.5956227 7.2347907 8.0736313 23.3549432 10.1936542 7.4925796 23.5956227 7.2347907 8.1694880 23.7613382 4.2759273 8.0736313 23.3549432 4.2759273 7.5421278 23.8056876 7.2347907 7.5421278 23.8056876 7.2347907 7.4925796 23.5956227 7.2347907 8.1694880 23.7613382 4.2759273 8.0736313 23.3549432 4.2759273 9.9430924 23.6359584 1.8286782 12.1366023 21.6720055 0.3161951 9.7163173 22.6745203 1.8286782 12.5562686 23.4512274 0.3161951 12.5562686 23.4512274 0.3161951 9.9430924 23.6359584 1.8286782 12.1366023 21.6720055 0.3161951 9.7163173 22.6745203 1.8286782 12.1366023 21.6720055 0.3161951 7.4206981 2.4254902 0.0000000 4.6413034 3.5767532 0.3161951 14.9159970 20.5207425 0.0000000 14.9159970 20.5207425 0.0000000 12.1366023 21.6720055 0.3161951 7.4206981 2.4254902 0.0000000 4.6413034 3.5767532 0.3161951 12.5562686 23.4512274 0.3161951 14.9159970 20.5207425 0.0000000 12.1366023 21.6720055 0.3161951 15.5571748 23.2390871 0.0000000 15.5571748 23.2390871 0.0000000 12.5562686 23.4512274 0.3161951 14.9159970 20.5207425 0.0000000 12.1366023 21.6720055 0.3161951 14.9159970 20.5207425 0.0000000 10.0786200 1.3245429 0.9347660 7.4206981 2.4254902 0.0000000 17.5739189 19.4197952 0.9347660 17.5739189 19.4197952 0.9347660 14.9159970 20.5207425 0.0000000 10.0786200 1.3245429 0.9347660 7.4206981 2.4254902 0.0000000 15.5571748 23.2390871 0.0000000 17.5739189 19.4197952 0.9347660 14.9159970 20.5207425 0.0000000 18.4269269 23.0362182 0.9347660 18.4269269 23.0362182 0.9347660 15.5571748 23.2390871 0.0000000 17.5739189 19.4197952 0.9347660 14.9159970 20.5207425 0.0000000 17.5739189 19.4197952 0.9347660 12.1554901 0.4642752 2.9588635 10.0786200 1.3245429 0.9347660 19.6507890 18.5595274 2.9588635 19.6507890 18.5595274 2.9588635 17.5739189 19.4197952 0.9347660 12.1554901 0.4642752 2.9588635 10.0786200 1.3245429 0.9347660 18.4269269 23.0362182 0.9347660 19.6507890 18.5595274 2.9588635 17.5739189 19.4197952 0.9347660 20.6693189 22.8776988 2.9588635 20.6693189 22.8776988 2.9588635 18.4269269 23.0362182 0.9347660 19.6507890 18.5595274 2.9588635 17.5739189 19.4197952 0.9347660 12.1554901 0.4642752 2.9588635 20.7874976 18.0886873 5.7223076 13.2921987 -0.0065650 5.7223076 19.6507890 18.5595274 2.9588635 19.6507890 18.5595274 2.9588635 12.1554901 0.4642752 2.9588635 20.7874976 18.0886873 5.7223076 13.2921987 -0.0065650 5.7223076 19.6507890 18.5595274 2.9588635 21.8966207 22.7909383 5.7223076 20.7874976 18.0886873 5.7223076 20.6693189 22.8776988 2.9588635 20.6693189 22.8776988 2.9588635 19.6507890 18.5595274 2.9588635 21.8966207 22.7909383 5.7223076 20.7874976 18.0886873 5.7223076 20.7874976 18.0886873 5.7223076 13.2921987 -0.0065650 8.7472739 13.2921987 -0.0065650 5.7223076 20.7874976 18.0886873 8.7472739 20.7874976 18.0886873 8.7472739 20.7874976 18.0886873 5.7223076 13.2921987 -0.0065650 8.7472739 13.2921987 -0.0065650 5.7223076 21.8966207 22.7909383 5.7223076 20.7874976 18.0886873 8.7472739 20.7874976 18.0886873 5.7223076 21.8966207 22.7909383 8.7472739 21.8966207 22.7909383 8.7472739 21.8966207 22.7909383 5.7223076 20.7874976 18.0886873 8.7472739 20.7874976 18.0886873 5.7223076 20.7874976 18.0886873 8.7472739 12.1554901 0.4642752 11.5107180 13.2921987 -0.0065650 8.7472739 19.6507890 18.5595274 11.5107180 19.6507890 18.5595274 11.5107180 20.7874976 18.0886873 8.7472739 12.1554901 0.4642752 11.5107180 13.2921987 -0.0065650 8.7472739 21.8966207 22.7909383 8.7472739 19.6507890 18.5595274 11.5107180 20.7874976 18.0886873 8.7472739 20.6693189 22.8776988 11.5107180 20.6693189 22.8776988 11.5107180 21.8966207 22.7909383 8.7472739 19.6507890 18.5595274 11.5107180 20.7874976 18.0886873 8.7472739 12.1554901 0.4642752 11.5107180 17.5739189 19.4197952 13.5348155 10.0786200 1.3245429 13.5348155 19.6507890 18.5595274 11.5107180 19.6507890 18.5595274 11.5107180 12.1554901 0.4642752 11.5107180 17.5739189 19.4197952 13.5348155 10.0786200 1.3245429 13.5348155 19.6507890 18.5595274 11.5107180 18.4269269 23.0362182 13.5348155 17.5739189 19.4197952 13.5348155 20.6693189 22.8776988 11.5107180 20.6693189 22.8776988 11.5107180 19.6507890 18.5595274 11.5107180 18.4269269 23.0362182 13.5348155 17.5739189 19.4197952 13.5348155 10.0786200 1.3245429 13.5348155 14.9159970 20.5207425 14.4695815 7.4206981 2.4254902 14.4695815 17.5739189 19.4197952 13.5348155 17.5739189 19.4197952 13.5348155 10.0786200 1.3245429 13.5348155 14.9159970 20.5207425 14.4695815 7.4206981 2.4254902 14.4695815 17.5739189 19.4197952 13.5348155 15.5571748 23.2390871 14.4695815 14.9159970 20.5207425 14.4695815 18.4269269 23.0362182 13.5348155 18.4269269 23.0362182 13.5348155 17.5739189 19.4197952 13.5348155 15.5571748 23.2390871 14.4695815 14.9159970 20.5207425 14.4695815 7.4206981 2.4254902 14.4695815 12.1366023 21.6720055 14.1533864 4.6413034 3.5767532 14.1533864 14.9159970 20.5207425 14.4695815 14.9159970 20.5207425 14.4695815 7.4206981 2.4254902 14.4695815 12.1366023 21.6720055 14.1533864 4.6413034 3.5767532 14.1533864 14.9159970 20.5207425 14.4695815 12.5562686 23.4512274 14.1533864 12.1366023 21.6720055 14.1533864 15.5571748 23.2390871 14.4695815 15.5571748 23.2390871 14.4695815 14.9159970 20.5207425 14.4695815 12.5562686 23.4512274 14.1533864 12.1366023 21.6720055 14.1533864 4.6413034 3.5767532 14.1533864 9.7163173 22.6745203 12.6409033 2.2210184 4.5792680 12.6409033 12.1366023 21.6720055 14.1533864 12.1366023 21.6720055 14.1533864 4.6413034 3.5767532 14.1533864 9.7163173 22.6745203 12.6409033 2.2210184 4.5792680 12.6409033 12.1366023 21.6720055 14.1533864 9.9430924 23.6359584 12.6409033 9.7163173 22.6745203 12.6409033 12.5562686 23.4512274 14.1533864 12.5562686 23.4512274 14.1533864 12.1366023 21.6720055 14.1533864 9.9430924 23.6359584 12.6409033 9.7163173 22.6745203 12.6409033 9.7163173 22.6745203 12.6409033 0.5783324 5.2596909 10.1936542 2.2210184 4.5792680 12.6409033 8.0736313 23.3549432 10.1936542 8.0736313 23.3549432 10.1936542 9.7163173 22.6745203 12.6409033 0.5783324 5.2596909 10.1936542 2.2210184 4.5792680 12.6409033 9.9430924 23.6359584 12.6409033 8.0736313 23.3549432 10.1936542 9.7163173 22.6745203 12.6409033 8.1694880 23.7613382 10.1936542 8.1694880 23.7613382 10.1936542 9.9430924 23.6359584 12.6409033 8.0736313 23.3549432 10.1936542 9.7163173 22.6745203 12.6409033 12.5562686 23.4512274 0.3161951 18.4269269 23.0362182 0.9347660 15.5571748 23.2390871 0.0000000 9.9430924 23.6359584 1.8286782 20.6693189 22.8776988 2.9588635 8.1694880 23.7613382 4.2759273 21.8966207 22.7909383 5.7223076 7.5421278 23.8056876 7.2347907 21.8966207 22.7909383 8.7472739 8.1694880 23.7613382 10.1936542 20.6693189 22.8776988 11.5107180 9.9430924 23.6359584 12.6409033 18.4269269 23.0362182 13.5348155 12.5562686 23.4512274 14.1533864 15.5571748 23.2390871 14.4695815 15.5571748 23.2390871 14.4695815 12.5562686 23.4512274 14.1533864 18.4269269 23.0362182 13.5348155 9.9430924 23.6359584 12.6409033 20.6693189 22.8776988 11.5107180 8.1694880 23.7613382 10.1936542 21.8966207 22.7909383 8.7472739 7.5421278 23.8056876 7.2347907 21.8966207 22.7909383 5.7223076 8.1694880 23.7613382 4.2759273 20.6693189 22.8776988 2.9588635 9.9430924 23.6359584 1.8286782 18.4269269 23.0362182 0.9347660 12.5562686 23.4512274 0.3161951 15.5571748 23.2390871 0.0000000 8.1694880 23.7613382 4.2759273 9.7136740 25.0543970 1.8286782 9.9430924 23.6359584 1.8286782 8.0700224 24.3763099 4.2759273 8.0700224 24.3763099 4.2759273 8.1694880 23.7613382 4.2759273 9.7136740 25.0543970 1.8286782 9.9430924 23.6359584 1.8286782 8.0700224 24.3763099 10.1936542 7.5421278 23.8056876 7.2347907 8.1694880 23.7613382 10.1936542 7.4886291 24.1364566 7.2347907 7.4886291 24.1364566 7.2347907 8.0700224 24.3763099 10.1936542 7.5421278 23.8056876 7.2347907 8.1694880 23.7613382 10.1936542 7.5421278 23.8056876 7.2347907 8.0700224 24.3763099 4.2759273 8.1694880 23.7613382 4.2759273 7.4886291 24.1364566 7.2347907 7.4886291 24.1364566 7.2347907 7.5421278 23.8056876 7.2347907 8.0700224 24.3763099 4.2759273 8.1694880 23.7613382 4.2759273 12.1353816 26.0534705 0.3161951 9.9430924 23.6359584 1.8286782 9.7136740 25.0543970 1.8286782 12.5562686 23.4512274 0.3161951 12.5562686 23.4512274 0.3161951 12.1353816 26.0534705 0.3161951 9.9430924 23.6359584 1.8286782 9.7136740 25.0543970 1.8286782 14.9164100 27.2007815 0.0000000 12.5562686 23.4512274 0.3161951 12.1353816 26.0534705 0.3161951 15.5571748 23.2390871 0.0000000 15.5571748 23.2390871 0.0000000 14.9164100 27.2007815 0.0000000 12.5562686 23.4512274 0.3161951 12.1353816 26.0534705 0.3161951 17.5758941 28.2979494 0.9347660 15.5571748 23.2390871 0.0000000 14.9164100 27.2007815 0.0000000 18.4269269 23.0362182 0.9347660 18.4269269 23.0362182 0.9347660 17.5758941 28.2979494 0.9347660 15.5571748 23.2390871 0.0000000 14.9164100 27.2007815 0.0000000 19.6539849 29.1552641 2.9588635 18.4269269 23.0362182 0.9347660 17.5758941 28.2979494 0.9347660 20.6693189 22.8776988 2.9588635 20.6693189 22.8776988 2.9588635 19.6539849 29.1552641 2.9588635 18.4269269 23.0362182 0.9347660 17.5758941 28.2979494 0.9347660 20.6693189 22.8776988 2.9588635 20.7913618 29.6244880 5.7223076 21.8966207 22.7909383 5.7223076 19.6539849 29.1552641 2.9588635 19.6539849 29.1552641 2.9588635 20.6693189 22.8776988 2.9588635 20.7913618 29.6244880 5.7223076 21.8966207 22.7909383 5.7223076 20.7913618 29.6244880 5.7223076 21.8966207 22.7909383 8.7472739 21.8966207 22.7909383 5.7223076 20.7913618 29.6244880 8.7472739 20.7913618 29.6244880 8.7472739 20.7913618 29.6244880 5.7223076 21.8966207 22.7909383 8.7472739 21.8966207 22.7909383 5.7223076 20.7913618 29.6244880 8.7472739 20.6693189 22.8776988 11.5107180 21.8966207 22.7909383 8.7472739 19.6539849 29.1552641 11.5107180 19.6539849 29.1552641 11.5107180 20.7913618 29.6244880 8.7472739 20.6693189 22.8776988 11.5107180 21.8966207 22.7909383 8.7472739 18.4269269 23.0362182 13.5348155 19.6539849 29.1552641 11.5107180 17.5758941 28.2979494 13.5348155 20.6693189 22.8776988 11.5107180 20.6693189 22.8776988 11.5107180 18.4269269 23.0362182 13.5348155 19.6539849 29.1552641 11.5107180 17.5758941 28.2979494 13.5348155 15.5571748 23.2390871 14.4695815 17.5758941 28.2979494 13.5348155 14.9164100 27.2007815 14.4695815 18.4269269 23.0362182 13.5348155 18.4269269 23.0362182 13.5348155 15.5571748 23.2390871 14.4695815 17.5758941 28.2979494 13.5348155 14.9164100 27.2007815 14.4695815 12.5562686 23.4512274 14.1533864 14.9164100 27.2007815 14.4695815 12.1353816 26.0534705 14.1533864 15.5571748 23.2390871 14.4695815 15.5571748 23.2390871 14.4695815 12.5562686 23.4512274 14.1533864 14.9164100 27.2007815 14.4695815 12.1353816 26.0534705 14.1533864 9.9430924 23.6359584 12.6409033 12.1353816 26.0534705 14.1533864 9.7136740 25.0543970 12.6409033 12.5562686 23.4512274 14.1533864 12.5562686 23.4512274 14.1533864 9.9430924 23.6359584 12.6409033 12.1353816 26.0534705 14.1533864 9.7136740 25.0543970 12.6409033 9.7136740 25.0543970 12.6409033 8.1694880 23.7613382 10.1936542 9.9430924 23.6359584 12.6409033 8.0700224 24.3763099 10.1936542 8.0700224 24.3763099 10.1936542 9.7136740 25.0543970 12.6409033 8.1694880 23.7613382 10.1936542 9.9430924 23.6359584 12.6409033 12.1353816 26.0534705 0.3161951 17.5758941 28.2979494 0.9347660 14.9164100 27.2007815 0.0000000 9.7136740 25.0543970 1.8286782 19.6539849 29.1552641 2.9588635 8.0700224 24.3763099 4.2759273 20.7913618 29.6244880 5.7223076 7.4886291 24.1364566 7.2347907 20.7913618 29.6244880 8.7472739 8.0700224 24.3763099 10.1936542 19.6539849 29.1552641 11.5107180 9.7136740 25.0543970 12.6409033 17.5758941 28.2979494 13.5348155 12.1353816 26.0534705 14.1533864 14.9164100 27.2007815 14.4695815 14.9164100 27.2007815 14.4695815 12.1353816 26.0534705 14.1533864 17.5758941 28.2979494 13.5348155 9.7136740 25.0543970 12.6409033 19.6539849 29.1552641 11.5107180 8.0700224 24.3763099 10.1936542 20.7913618 29.6244880 8.7472739 7.4886291 24.1364566 7.2347907 20.7913618 29.6244880 5.7223076 8.0700224 24.3763099 4.2759273 19.6539849 29.1552641 2.9588635 9.7136740 25.0543970 1.8286782 17.5758941 28.2979494 0.9347660 12.1353816 26.0534705 0.3161951 14.9164100 27.2007815 0.0000000</float_array>
                    <technique_common>
                        <accessor count="480" source="#ID11" stride="3">
                            <param name="X" type="float" />
                            <param name="Y" type="float" />
                            <param name="Z" type="float" />
                        </accessor>
                    </technique_common>
                </source>
                <source id="ID9">
                    <float_array id="ID12" count="1440">-0.7474342 0.3095974 -0.5877853 -0.7474342 0.3095974 -0.5877853 -0.7474342 0.3095974 -0.5877853 -0.7474342 0.3095974 -0.5877853 0.7474342 -0.3095974 0.5877853 0.7474342 -0.3095974 0.5877853 0.7474342 -0.3095974 0.5877853 0.7474342 -0.3095974 0.5877853 -0.3826834 -0.9238795 -0.0000000 -0.3826834 -0.9238795 -0.0000000 -0.3826834 -0.9238795 -0.0000000 -0.3826834 -0.9238795 -0.0000000 -0.3826834 -0.9238795 -0.0000000 -0.3826834 -0.9238795 -0.0000000 -0.3826834 -0.9238795 -0.0000000 -0.3826834 -0.9238795 -0.0000000 -0.3826834 -0.9238795 -0.0000000 -0.3826834 -0.9238795 -0.0000000 -0.3826834 -0.9238795 -0.0000000 -0.3826834 -0.9238795 -0.0000000 -0.3826834 -0.9238795 -0.0000000 -0.3826834 -0.9238795 -0.0000000 -0.3826834 -0.9238795 -0.0000000 0.3826834 0.9238795 0.0000000 0.3826834 0.9238795 0.0000000 0.3826834 0.9238795 0.0000000 0.3826834 0.9238795 0.0000000 0.3826834 0.9238795 0.0000000 0.3826834 0.9238795 0.0000000 0.3826834 0.9238795 0.0000000 0.3826834 0.9238795 0.0000000 0.3826834 0.9238795 0.0000000 0.3826834 0.9238795 0.0000000 0.3826834 0.9238795 0.0000000 0.3826834 0.9238795 0.0000000 0.3826834 0.9238795 0.0000000 0.3826834 0.9238795 0.0000000 0.3826834 0.9238795 0.0000000 -0.7909313 0.1865575 -0.5827726 -0.7909313 0.1865575 -0.5827726 -0.7909313 0.1865575 -0.5827726 -0.7909313 0.1865575 -0.5827726 0.7909313 -0.1865575 0.5827726 0.7909313 -0.1865575 0.5827726 0.7909313 -0.1865575 0.5827726 0.7909313 -0.1865575 0.5827726 -0.4619398 0.1913417 -0.8660254 -0.4619398 0.1913417 -0.8660254 -0.4619398 0.1913417 -0.8660254 -0.4619398 0.1913417 -0.8660254 0.4619398 -0.1913417 0.8660254 0.4619398 -0.1913417 0.8660254 0.4619398 -0.1913417 0.8660254 0.4619398 -0.1913417 0.8660254 -0.3826834 -0.9238795 -0.0000000 -0.3826834 -0.9238795 -0.0000000 -0.3826834 -0.9238795 -0.0000000 -0.3826834 -0.9238795 -0.0000000 -0.3826834 -0.9238795 -0.0000000 -0.3826834 -0.9238795 -0.0000000 -0.3826834 -0.9238795 -0.0000000 -0.3826834 -0.9238795 -0.0000000 -0.3826834 -0.9238795 -0.0000000 -0.3826834 -0.9238795 -0.0000000 -0.3826834 -0.9238795 -0.0000000 -0.3826834 -0.9238795 -0.0000000 -0.3826834 -0.9238795 -0.0000000 -0.3826834 -0.9238795 -0.0000000 -0.3826834 -0.9238795 -0.0000000 0.3826834 0.9238795 0.0000000 0.3826834 0.9238795 0.0000000 0.3826834 0.9238795 0.0000000 0.3826834 0.9238795 0.0000000 0.3826834 0.9238795 0.0000000 0.3826834 0.9238795 0.0000000 0.3826834 0.9238795 0.0000000 0.3826834 0.9238795 0.0000000 0.3826834 0.9238795 0.0000000 0.3826834 0.9238795 0.0000000 0.3826834 0.9238795 0.0000000 0.3826834 0.9238795 0.0000000 0.3826834 0.9238795 0.0000000 0.3826834 0.9238795 0.0000000 0.3826834 0.9238795 0.0000000 -0.9036905 0.3743209 -0.2079117 -0.9036905 0.3743209 -0.2079117 -0.9036905 0.3743209 -0.2079117 -0.9036905 0.3743209 -0.2079117 0.9036905 -0.3743209 0.2079117 0.9036905 -0.3743209 0.2079117 0.9036905 -0.3743209 0.2079117 0.9036905 -0.3743209 0.2079117 -0.9036905 0.3743209 0.2079117 -0.9036905 0.3743209 0.2079117 -0.9036905 0.3743209 0.2079117 -0.9036905 0.3743209 0.2079117 0.9036905 -0.3743209 -0.2079117 0.9036905 -0.3743209 -0.2079117 0.9036905 -0.3743209 -0.2079117 0.9036905 -0.3743209 -0.2079117 -0.9525528 0.2246792 0.2053350 -0.9525528 0.2246792 0.2053350 -0.9525528 0.2246792 0.2053350 -0.9525528 0.2246792 0.2053350 0.9525528 -0.2246792 -0.2053350 0.9525528 -0.2246792 -0.2053350 0.9525528 -0.2246792 -0.2053350 0.9525528 -0.2246792 -0.2053350 -0.9525528 0.2246792 -0.2053350 -0.9525528 0.2246792 -0.2053350 -0.9525528 0.2246792 -0.2053350 -0.9525528 0.2246792 -0.2053350 0.9525528 -0.2246792 0.2053350 0.9525528 -0.2246792 0.2053350 0.9525528 -0.2246792 0.2053350 0.9525528 -0.2246792 0.2053350 -0.4914082 0.1159088 -0.8631820 -0.4914082 0.1159088 -0.8631820 -0.4914082 0.1159088 -0.8631820 -0.4914082 0.1159088 -0.8631820 0.4914082 -0.1159088 0.8631820 0.4914082 -0.1159088 0.8631820 0.4914082 -0.1159088 0.8631820 0.4914082 -0.1159088 0.8631820 -0.0965717 0.0400013 -0.9945219 -0.0965717 0.0400013 -0.9945219 -0.0965717 0.0400013 -0.9945219 -0.0965717 0.0400013 -0.9945219 0.0965717 -0.0400013 0.9945219 0.0965717 -0.0400013 0.9945219 0.0965717 -0.0400013 0.9945219 0.0965717 -0.0400013 0.9945219 -0.1030558 0.0243078 -0.9943785 -0.1030558 0.0243078 -0.9943785 -0.1030558 0.0243078 -0.9943785 -0.1030558 0.0243078 -0.9943785 0.1030558 -0.0243078 0.9943785 0.1030558 -0.0243078 0.9943785 0.1030558 -0.0243078 0.9943785 0.1030558 -0.0243078 0.9943785 0.2854945 -0.1182557 -0.9510565 0.2854945 -0.1182557 -0.9510565 0.2854945 -0.1182557 -0.9510565 0.2854945 -0.1182557 -0.9510565 -0.2854945 0.1182557 0.9510565 -0.2854945 0.1182557 0.9510565 -0.2854945 0.1182557 0.9510565 -0.2854945 0.1182557 0.9510565 0.3043241 -0.0717811 -0.9498601 0.3043241 -0.0717811 -0.9498601 0.3043241 -0.0717811 -0.9498601 0.3043241 -0.0717811 -0.9498601 -0.3043241 0.0717811 0.9498601 -0.3043241 0.0717811 0.9498601 -0.3043241 0.0717811 0.9498601 -0.3043241 0.0717811 0.9498601 0.6181961 -0.2560652 -0.7431448 0.6181961 -0.2560652 -0.7431448 0.6181961 -0.2560652 -0.7431448 0.6181961 -0.2560652 -0.7431448 -0.6181961 0.2560652 0.7431448 -0.6181961 0.2560652 0.7431448 -0.6181961 0.2560652 0.7431448 -0.6181961 0.2560652 0.7431448 0.6559341 -0.1547156 -0.7387919 0.6559341 -0.1547156 -0.7387919 0.6559341 -0.1547156 -0.7387919 0.6559341 -0.1547156 -0.7387919 -0.6559341 0.1547156 0.7387919 -0.6559341 0.1547156 0.7387919 -0.6559341 0.1547156 0.7387919 -0.6559341 0.1547156 0.7387919 0.8440060 -0.3495987 -0.4067366 0.8440060 -0.3495987 -0.4067366 0.8440060 -0.3495987 -0.4067366 0.8440060 -0.3495987 -0.4067366 -0.8440060 0.3495987 0.4067366 -0.8440060 0.3495987 0.4067366 -0.8440060 0.3495987 0.4067366 -0.8440060 0.3495987 0.4067366 0.8910439 -0.2101711 -0.4023292 0.8910439 -0.2101711 -0.4023292 0.8910439 -0.2101711 -0.4023292 0.8910439 -0.2101711 -0.4023292 -0.8910439 0.2101711 0.4023292 -0.8910439 0.2101711 0.4023292 -0.8910439 0.2101711 0.4023292 -0.8910439 0.2101711 0.4023292 0.9238795 -0.3826834 0.0000000 0.9238795 -0.3826834 0.0000000 0.9238795 -0.3826834 0.0000000 0.9238795 -0.3826834 0.0000000 -0.9238795 0.3826834 -0.0000000 -0.9238795 0.3826834 -0.0000000 -0.9238795 0.3826834 -0.0000000 -0.9238795 0.3826834 -0.0000000 0.9732919 -0.2295710 -0.0000000 0.9732919 -0.2295710 -0.0000000 0.9732919 -0.2295710 -0.0000000 0.9732919 -0.2295710 -0.0000000 -0.9732919 0.2295710 0.0000000 -0.9732919 0.2295710 0.0000000 -0.9732919 0.2295710 0.0000000 -0.9732919 0.2295710 0.0000000 0.8440060 -0.3495987 0.4067366 0.8440060 -0.3495987 0.4067366 0.8440060 -0.3495987 0.4067366 0.8440060 -0.3495987 0.4067366 -0.8440060 0.3495987 -0.4067366 -0.8440060 0.3495987 -0.4067366 -0.8440060 0.3495987 -0.4067366 -0.8440060 0.3495987 -0.4067366 0.8910439 -0.2101711 0.4023292 0.8910439 -0.2101711 0.4023292 0.8910439 -0.2101711 0.4023292 0.8910439 -0.2101711 0.4023292 -0.8910439 0.2101711 -0.4023292 -0.8910439 0.2101711 -0.4023292 -0.8910439 0.2101711 -0.4023292 -0.8910439 0.2101711 -0.4023292 0.6181961 -0.2560652 0.7431448 0.6181961 -0.2560652 0.7431448 0.6181961 -0.2560652 0.7431448 0.6181961 -0.2560652 0.7431448 -0.6181961 0.2560652 -0.7431448 -0.6181961 0.2560652 -0.7431448 -0.6181961 0.2560652 -0.7431448 -0.6181961 0.2560652 -0.7431448 0.6559341 -0.1547156 0.7387919 0.6559341 -0.1547156 0.7387919 0.6559341 -0.1547156 0.7387919 0.6559341 -0.1547156 0.7387919 -0.6559341 0.1547156 -0.7387919 -0.6559341 0.1547156 -0.7387919 -0.6559341 0.1547156 -0.7387919 -0.6559341 0.1547156 -0.7387919 0.2854945 -0.1182557 0.9510565 0.2854945 -0.1182557 0.9510565 0.2854945 -0.1182557 0.9510565 0.2854945 -0.1182557 0.9510565 -0.2854945 0.1182557 -0.9510565 -0.2854945 0.1182557 -0.9510565 -0.2854945 0.1182557 -0.9510565 -0.2854945 0.1182557 -0.9510565 0.3043241 -0.0717811 0.9498601 0.3043241 -0.0717811 0.9498601 0.3043241 -0.0717811 0.9498601 0.3043241 -0.0717811 0.9498601 -0.3043241 0.0717811 -0.9498601 -0.3043241 0.0717811 -0.9498601 -0.3043241 0.0717811 -0.9498601 -0.3043241 0.0717811 -0.9498601 -0.0965717 0.0400013 0.9945219 -0.0965717 0.0400013 0.9945219 -0.0965717 0.0400013 0.9945219 -0.0965717 0.0400013 0.9945219 0.0965717 -0.0400013 -0.9945219 0.0965717 -0.0400013 -0.9945219 0.0965717 -0.0400013 -0.9945219 0.0965717 -0.0400013 -0.9945219 -0.1030558 0.0243078 0.9943785 -0.1030558 0.0243078 0.9943785 -0.1030558 0.0243078 0.9943785 -0.1030558 0.0243078 0.9943785 0.1030558 -0.0243078 -0.9943785 0.1030558 -0.0243078 -0.9943785 0.1030558 -0.0243078 -0.9943785 0.1030558 -0.0243078 -0.9943785 -0.4619398 0.1913417 0.8660254 -0.4619398 0.1913417 0.8660254 -0.4619398 0.1913417 0.8660254 -0.4619398 0.1913417 0.8660254 0.4619398 -0.1913417 -0.8660254 0.4619398 -0.1913417 -0.8660254 0.4619398 -0.1913417 -0.8660254 0.4619398 -0.1913417 -0.8660254 -0.4914082 0.1159088 0.8631820 -0.4914082 0.1159088 0.8631820 -0.4914082 0.1159088 0.8631820 -0.4914082 0.1159088 0.8631820 0.4914082 -0.1159088 -0.8631820 0.4914082 -0.1159088 -0.8631820 0.4914082 -0.1159088 -0.8631820 0.4914082 -0.1159088 -0.8631820 -0.7474342 0.3095974 0.5877853 -0.7474342 0.3095974 0.5877853 -0.7474342 0.3095974 0.5877853 -0.7474342 0.3095974 0.5877853 0.7474342 -0.3095974 -0.5877853 0.7474342 -0.3095974 -0.5877853 0.7474342 -0.3095974 -0.5877853 0.7474342 -0.3095974 -0.5877853 -0.7909313 0.1865575 0.5827726 -0.7909313 0.1865575 0.5827726 -0.7909313 0.1865575 0.5827726 -0.7909313 0.1865575 0.5827726 0.7909313 -0.1865575 -0.5827726 0.7909313 -0.1865575 -0.5827726 0.7909313 -0.1865575 -0.5827726 0.7909313 -0.1865575 -0.5827726 0.0705161 0.9975106 -0.0000000 0.0705161 0.9975106 -0.0000000 0.0705161 0.9975106 -0.0000000 0.0705161 0.9975106 -0.0000000 0.0705161 0.9975106 -0.0000000 0.0705161 0.9975106 -0.0000000 0.0705161 0.9975106 -0.0000000 0.0705161 0.9975106 -0.0000000 0.0705161 0.9975106 -0.0000000 0.0705161 0.9975106 -0.0000000 0.0705161 0.9975106 -0.0000000 0.0705161 0.9975106 -0.0000000 0.0705161 0.9975106 -0.0000000 0.0705161 0.9975106 -0.0000000 0.0705161 0.9975106 -0.0000000 -0.0705161 -0.9975106 0.0000000 -0.0705161 -0.9975106 0.0000000 -0.0705161 -0.9975106 0.0000000 -0.0705161 -0.9975106 0.0000000 -0.0705161 -0.9975106 0.0000000 -0.0705161 -0.9975106 0.0000000 -0.0705161 -0.9975106 0.0000000 -0.0705161 -0.9975106 0.0000000 -0.0705161 -0.9975106 0.0000000 -0.0705161 -0.9975106 0.0000000 -0.0705161 -0.9975106 0.0000000 -0.0705161 -0.9975106 0.0000000 -0.0705161 -0.9975106 0.0000000 -0.0705161 -0.9975106 0.0000000 -0.0705161 -0.9975106 0.0000000 -0.8059651 -0.1303569 -0.5774317 -0.8059651 -0.1303569 -0.5774317 -0.8059651 -0.1303569 -0.5774317 -0.8059651 -0.1303569 -0.5774317 0.8059651 0.1303569 0.5774317 0.8059651 0.1303569 0.5774317 0.8059651 0.1303569 0.5774317 0.8059651 0.1303569 0.5774317 -0.9666943 -0.1563532 0.2026222 -0.9666943 -0.1563532 0.2026222 -0.9666943 -0.1563532 0.2026222 -0.9666943 -0.1563532 0.2026222 0.9666943 0.1563532 -0.2026222 0.9666943 0.1563532 -0.2026222 0.9666943 0.1563532 -0.2026222 0.9666943 0.1563532 -0.2026222 -0.9666943 -0.1563532 -0.2026222 -0.9666943 -0.1563532 -0.2026222 -0.9666943 -0.1563532 -0.2026222 -0.9666943 -0.1563532 -0.2026222 0.9666943 0.1563532 0.2026222 0.9666943 0.1563532 0.2026222 0.9666943 0.1563532 0.2026222 0.9666943 0.1563532 0.2026222 -0.5035773 -0.0814486 -0.8601023 -0.5035773 -0.0814486 -0.8601023 -0.5035773 -0.0814486 -0.8601023 -0.5035773 -0.0814486 -0.8601023 0.5035773 0.0814486 0.8601023 0.5035773 0.0814486 0.8601023 0.5035773 0.0814486 0.8601023 0.5035773 0.0814486 0.8601023 -0.1059693 -0.0171395 -0.9942217 -0.1059693 -0.0171395 -0.9942217 -0.1059693 -0.0171395 -0.9942217 -0.1059693 -0.0171395 -0.9942217 0.1059693 0.0171395 0.9942217 0.1059693 0.0171395 0.9942217 0.1059693 0.0171395 0.9942217 0.1059693 0.0171395 0.9942217 0.3125473 0.0505514 -0.9485561 0.3125473 0.0505514 -0.9485561 0.3125473 0.0505514 -0.9485561 0.3125473 0.0505514 -0.9485561 -0.3125473 -0.0505514 0.9485561 -0.3125473 -0.0505514 0.9485561 -0.3125473 -0.0505514 0.9485561 -0.3125473 -0.0505514 0.9485561 0.6703140 0.1084166 -0.7341151 0.6703140 0.1084166 -0.7341151 0.6703140 0.1084166 -0.7341151 0.6703140 0.1084166 -0.7341151 -0.6703140 -0.1084166 0.7341151 -0.6703140 -0.1084166 0.7341151 -0.6703140 -0.1084166 0.7341151 -0.6703140 -0.1084166 0.7341151 0.9057592 0.1464976 -0.3976667 0.9057592 0.1464976 -0.3976667 0.9057592 0.1464976 -0.3976667 0.9057592 0.1464976 -0.3976667 -0.9057592 -0.1464976 0.3976667 -0.9057592 -0.1464976 0.3976667 -0.9057592 -0.1464976 0.3976667 -0.9057592 -0.1464976 0.3976667 0.9871712 0.1596652 0.0000000 0.9871712 0.1596652 0.0000000 0.9871712 0.1596652 0.0000000 0.9871712 0.1596652 0.0000000 -0.9871712 -0.1596652 -0.0000000 -0.9871712 -0.1596652 -0.0000000 -0.9871712 -0.1596652 -0.0000000 -0.9871712 -0.1596652 -0.0000000 0.9057592 0.1464976 0.3976667 0.9057592 0.1464976 0.3976667 0.9057592 0.1464976 0.3976667 0.9057592 0.1464976 0.3976667 -0.9057592 -0.1464976 -0.3976667 -0.9057592 -0.1464976 -0.3976667 -0.9057592 -0.1464976 -0.3976667 -0.9057592 -0.1464976 -0.3976667 0.6703140 0.1084166 0.7341151 0.6703140 0.1084166 0.7341151 0.6703140 0.1084166 0.7341151 0.6703140 0.1084166 0.7341151 -0.6703140 -0.1084166 -0.7341151 -0.6703140 -0.1084166 -0.7341151 -0.6703140 -0.1084166 -0.7341151 -0.6703140 -0.1084166 -0.7341151 0.3125473 0.0505514 0.9485561 0.3125473 0.0505514 0.9485561 0.3125473 0.0505514 0.9485561 0.3125473 0.0505514 0.9485561 -0.3125473 -0.0505514 -0.9485561 -0.3125473 -0.0505514 -0.9485561 -0.3125473 -0.0505514 -0.9485561 -0.3125473 -0.0505514 -0.9485561 -0.1059693 -0.0171395 0.9942217 -0.1059693 -0.0171395 0.9942217 -0.1059693 -0.0171395 0.9942217 -0.1059693 -0.0171395 0.9942217 0.1059693 0.0171395 -0.9942217 0.1059693 0.0171395 -0.9942217 0.1059693 0.0171395 -0.9942217 0.1059693 0.0171395 -0.9942217 -0.5035773 -0.0814486 0.8601023 -0.5035773 -0.0814486 0.8601023 -0.5035773 -0.0814486 0.8601023 -0.5035773 -0.0814486 0.8601023 0.5035773 0.0814486 -0.8601023 0.5035773 0.0814486 -0.8601023 0.5035773 0.0814486 -0.8601023 0.5035773 0.0814486 -0.8601023 -0.8059651 -0.1303569 0.5774317 -0.8059651 -0.1303569 0.5774317 -0.8059651 -0.1303569 0.5774317 -0.8059651 -0.1303569 0.5774317 0.8059651 0.1303569 -0.5774317 0.8059651 0.1303569 -0.5774317 0.8059651 0.1303569 -0.5774317 0.8059651 0.1303569 -0.5774317 -0.3813698 0.9244226 0.0000000 -0.3813698 0.9244226 0.0000000 -0.3813698 0.9244226 0.0000000 -0.3813698 0.9244226 0.0000000 -0.3813698 0.9244226 0.0000000 -0.3813698 0.9244226 0.0000000 -0.3813698 0.9244226 0.0000000 -0.3813698 0.9244226 0.0000000 -0.3813698 0.9244226 0.0000000 -0.3813698 0.9244226 0.0000000 -0.3813698 0.9244226 0.0000000 -0.3813698 0.9244226 0.0000000 -0.3813698 0.9244226 0.0000000 -0.3813698 0.9244226 0.0000000 -0.3813698 0.9244226 0.0000000 0.3813698 -0.9244226 -0.0000000 0.3813698 -0.9244226 -0.0000000 0.3813698 -0.9244226 -0.0000000 0.3813698 -0.9244226 -0.0000000 0.3813698 -0.9244226 -0.0000000 0.3813698 -0.9244226 -0.0000000 0.3813698 -0.9244226 -0.0000000 0.3813698 -0.9244226 -0.0000000 0.3813698 -0.9244226 -0.0000000 0.3813698 -0.9244226 -0.0000000 0.3813698 -0.9244226 -0.0000000 0.3813698 -0.9244226 -0.0000000 0.3813698 -0.9244226 -0.0000000 0.3813698 -0.9244226 -0.0000000 0.3813698 -0.9244226 -0.0000000</float_array>
                    <technique_common>
                        <accessor count="480" source="#ID12" stride="3">
                            <param name="X" type="float" />
                            <param name="Y" type="float" />
                            <param name="Z" type="float" />
                        </accessor>
                    </technique_common>
                </source>
                <vertices id="ID10">
                    <input semantic="POSITION" source="#ID8" />
                    <input semantic="NORMAL" source="#ID9" />
                </vertices>
                <triangles count="284" material="Material2">
                    <input offset="0" semantic="VERTEX" source="#ID10" />
                    <p>0 1 2 1 0 3 4 5 6 7 6 5 8 9 10 9 8 11 11 8 12 11 12 13 13 12 14 13 14 15 15 14 16 15 16 17 17 16 18 17 18 19 19 18 20 19 20 21 21 20 22 23 24 25 25 24 26 24 27 26 26 27 28 27 29 28 28 29 30 29 31 30 30 31 32 31 33 32 32 33 34 33 35 34 34 35 36 37 36 35 38 39 40 39 38 41 42 43 44 45 44 43 46 47 48 47 46 49 50 51 52 53 52 51 54 55 56 55 54 57 57 54 58 57 58 59 59 58 60 59 60 61 61 60 62 61 62 63 63 62 64 63 64 65 65 64 66 65 66 67 67 66 68 69 70 71 71 70 72 70 73 72 72 73 74 73 75 74 74 75 76 75 77 76 76 77 78 77 79 78 78 79 80 79 81 80 80 81 82 83 82 81 84 85 86 85 84 87 88 89 90 91 90 89 92 93 94 93 92 95 96 97 98 99 98 97 100 101 102 101 100 103 104 105 106 107 106 105 108 109 110 109 108 111 112 113 114 115 114 113 116 117 118 117 116 119 120 121 122 123 122 121 124 125 126 125 124 127 128 129 130 131 130 129 132 133 134 133 132 135 136 137 138 139 138 137 140 141 142 141 140 143 144 145 146 147 146 145 148 149 150 149 148 151 152 153 154 155 154 153 156 157 158 157 156 159 160 161 162 163 162 161 164 165 166 165 164 167 168 169 170 171 170 169 172 173 174 173 172 175 176 177 178 179 178 177 180 181 182 181 180 183 184 185 186 187 186 185 188 189 190 189 188 191 192 193 194 195 194 193 196 197 198 197 196 199 200 201 202 203 202 201 204 205 206 205 204 207 208 209 210 211 210 209 212 213 214 213 212 215 216 217 218 219 218 217 220 221 222 221 220 223 224 225 226 227 226 225 228 229 230 229 228 231 232 233 234 235 234 233 236 237 238 237 236 239 240 241 242 243 242 241 244 245 246 245 244 247 248 249 250 251 250 249 252 253 254 253 252 255 256 257 258 259 258 257 260 261 262 261 260 263 264 265 266 267 266 265 268 269 270 269 268 271 272 273 274 275 274 273 276 277 278 277 276 279 280 281 282 283 282 281 284 285 286 285 284 287 288 289 290 291 290 289 292 293 294 293 292 295 296 297 298 299 298 297 300 301 302 301 300 303 301 303 304 304 303 305 304 305 306 306 305 307 306 307 308 308 307 309 308 309 310 310 309 311 310 311 312 312 311 313 312 313 314 315 316 317 316 318 317 317 318 319 318 320 319 319 320 321 320 322 321 321 322 323 322 324 323 323 324 325 324 326 325 325 326 327 326 328 327 329 327 328 330 331 332 331 330 333 334 335 336 337 336 335 338 339 340 339 338 341 342 343 344 345 344 343 346 347 348 347 346 349 350 351 352 353 352 351 354 355 356 355 354 357 358 359 360 361 360 359 362 363 364 363 362 365 366 367 368 369 368 367 370 371 372 371 370 373 374 375 376 377 376 375 378 379 380 379 378 381 382 383 384 385 384 383 386 387 388 387 386 389 390 391 392 393 392 391 394 395 396 395 394 397 398 399 400 401 400 399 402 403 404 403 402 405 406 407 408 409 408 407 410 411 412 411 410 413 414 415 416 417 416 415 418 419 420 419 418 421 422 423 424 425 424 423 426 427 428 427 426 429 430 431 432 433 432 431 434 435 436 435 434 437 438 439 440 441 440 439 442 443 444 443 442 445 446 447 448 449 448 447 450 451 452 451 450 453 451 453 454 454 453 455 454 455 456 456 455 457 456 457 458 458 457 459 458 459 460 460 459 461 460 461 462 462 461 463 462 463 464 465 466 467 466 468 467 467 468 469 468 470 469 469 470 471 470 472 471 471 472 473 472 474 473 473 474 475 474 476 475 475 476 477 476 478 477 479 477 478</p>
                </triangles>
            </mesh>
        </geometry>
        <geometry id="ID22">
            <mesh>
                <source id="ID25">
                    <float_array id="ID30" count="123">7.8740157 7.8740157 -15.0733088 14.2770588 0.0000000 -7.8740157 7.8740157 0.0000000 -15.0733088 14.2770588 7.8740157 -7.8740157 7.8740157 0.0000000 -30.8213403 0.0000000 0.0000000 -15.0733088 0.0000000 0.0000000 -30.8213403 7.8740157 0.0000000 -15.0733088 10.3400509 0.0000000 -0.0000000 14.2770588 0.0000000 -7.8740157 14.2770588 0.0000000 0.0000000 7.8740157 7.8740157 -30.8213403 7.8740157 0.0000000 -15.0733088 7.8740157 0.0000000 -30.8213403 7.8740157 7.8740157 -15.0733088 7.8740157 7.8740157 -30.8213403 0.0000000 7.8740157 -15.0733088 0.0000000 7.8740157 -30.8213403 7.8740157 7.8740157 -15.0733088 10.3400509 7.8740157 -0.0000000 14.2770588 7.8740157 -7.8740157 14.2770588 7.8740157 0.0000000 14.2770588 7.8740157 0.0000000 14.2770588 7.8740157 -7.8740157 10.3400509 7.8740157 -0.0000000 7.8740157 7.8740157 -15.0733088 0.0000000 7.8740157 -15.0733088 7.8740157 7.8740157 -30.8213403 0.0000000 7.8740157 -30.8213403 10.3400509 7.8740157 -0.0000000 0.0000000 0.0000000 -15.0733088 10.3400509 0.0000000 -0.0000000 0.0000000 7.8740157 -15.0733088 0.0000000 7.8740157 -15.0733088 0.0000000 0.0000000 -30.8213403 0.0000000 0.0000000 -15.0733088 0.0000000 7.8740157 -30.8213403 7.8740157 7.8740157 -30.8213403 0.0000000 0.0000000 -30.8213403 0.0000000 7.8740157 -30.8213403 7.8740157 0.0000000 -30.8213403</float_array>
                    <technique_common>
                        <accessor count="41" source="#ID30" stride="3">
                            <param name="X" type="float" />
                            <param name="Y" type="float" />
                            <param name="Z" type="float" />
                        </accessor>
                    </technique_common>
                </source>
                <source id="ID26">
                    <float_array id="ID31" count="123">0.7472201 0.0000000 -0.6645767 0.7472201 0.0000000 -0.6645767 0.7472201 0.0000000 -0.6645767 0.7472201 0.0000000 -0.6645767 0.0000000 -1.0000000 0.0000000 0.0000000 -1.0000000 0.0000000 0.0000000 -1.0000000 0.0000000 0.0000000 -1.0000000 0.0000000 0.0000000 -1.0000000 0.0000000 0.0000000 -1.0000000 0.0000000 0.0000000 -1.0000000 0.0000000 1.0000000 0.0000000 0.0000000 1.0000000 0.0000000 0.0000000 1.0000000 0.0000000 0.0000000 1.0000000 0.0000000 0.0000000 0.0000000 -1.0000000 0.0000000 0.0000000 -1.0000000 0.0000000 0.0000000 -1.0000000 0.0000000 0.0000000 -1.0000000 0.0000000 0.0000000 -1.0000000 0.0000000 0.0000000 -1.0000000 0.0000000 0.0000000 -1.0000000 0.0000000 -0.0000000 1.0000000 -0.0000000 -0.0000000 1.0000000 -0.0000000 -0.0000000 1.0000000 -0.0000000 -0.0000000 1.0000000 -0.0000000 -0.0000000 1.0000000 -0.0000000 -0.0000000 1.0000000 -0.0000000 -0.0000000 1.0000000 -0.0000000 -0.8246250 0.0000000 0.5656797 -0.8246250 0.0000000 0.5656797 -0.8246250 0.0000000 0.5656797 -0.8246250 0.0000000 0.5656797 -1.0000000 0.0000000 -0.0000000 -1.0000000 0.0000000 -0.0000000 -1.0000000 0.0000000 -0.0000000 -1.0000000 0.0000000 -0.0000000 0.0000000 0.0000000 -1.0000000 0.0000000 0.0000000 -1.0000000 0.0000000 0.0000000 -1.0000000 0.0000000 0.0000000 -1.0000000</float_array>
                    <technique_common>
                        <accessor count="41" source="#ID31" stride="3">
                            <param name="X" type="float" />
                            <param name="Y" type="float" />
                            <param name="Z" type="float" />
                        </accessor>
                    </technique_common>
                </source>
                <vertices id="ID27">
                    <input semantic="POSITION" source="#ID25" />
                    <input semantic="NORMAL" source="#ID26" />
                </vertices>
                <triangles count="20" material="Material2">
                    <input offset="0" semantic="VERTEX" source="#ID27" />
                    <p>0 1 2 1 0 3 4 5 6 5 4 7 5 7 8 8 7 9 8 9 10 11 12 13 12 11 14 22 23 24 23 25 24 24 25 26 25 27 26 28 26 27 29 30 31 30 29 32 33 34 35 34 33 36 37 38 39 38 37 40</p>
                </triangles>
                <triangles count="5" material="Material3">
                    <input offset="0" semantic="VERTEX" source="#ID27" />
                    <p>15 16 17 16 15 18 16 18 19 19 18 20 19 20 21</p>
                </triangles>
            </mesh>
        </geometry>
        <geometry id="ID32">
            <mesh>
                <source id="ID35">
                    <float_array id="ID38" count="123">28.5541176 7.8740157 -15.0733088 18.2140667 0.0000000 -0.0000000 28.5541176 0.0000000 -15.0733088 18.2140667 7.8740157 -0.0000000 28.5541176 7.8740157 -15.0733088 20.6801019 7.8740157 -30.8213403 28.5541176 7.8740157 -30.8213403 20.6801019 7.8740157 -15.0733088 14.2770588 7.8740157 -7.8740157 18.2140667 7.8740157 -0.0000000 14.2770588 7.8740157 0.0000000 14.2770588 7.8740157 0.0000000 18.2140667 7.8740157 -0.0000000 14.2770588 7.8740157 -7.8740157 28.5541176 7.8740157 -15.0733088 20.6801019 7.8740157 -15.0733088 20.6801019 7.8740157 -30.8213403 28.5541176 7.8740157 -30.8213403 28.5541176 0.0000000 -15.0733088 20.6801019 0.0000000 -30.8213403 28.5541176 0.0000000 -30.8213403 20.6801019 0.0000000 -15.0733088 14.2770588 0.0000000 -7.8740157 18.2140667 0.0000000 -0.0000000 14.2770588 0.0000000 0.0000000 28.5541176 7.8740157 -30.8213403 28.5541176 0.0000000 -15.0733088 28.5541176 0.0000000 -30.8213403 28.5541176 7.8740157 -15.0733088 14.2770588 7.8740157 -7.8740157 20.6801019 0.0000000 -15.0733088 14.2770588 0.0000000 -7.8740157 20.6801019 7.8740157 -15.0733088 20.6801019 7.8740157 -15.0733088 20.6801019 0.0000000 -30.8213403 20.6801019 0.0000000 -15.0733088 20.6801019 7.8740157 -30.8213403 28.5541176 7.8740157 -30.8213403 20.6801019 0.0000000 -30.8213403 20.6801019 7.8740157 -30.8213403 28.5541176 0.0000000 -30.8213403</float_array>
                    <technique_common>
                        <accessor count="41" source="#ID38" stride="3">
                            <param name="X" type="float" />
                            <param name="Y" type="float" />
                            <param name="Z" type="float" />
                        </accessor>
                    </technique_common>
                </source>
                <source id="ID36">
                    <float_array id="ID39" count="123">0.8246250 0.0000000 0.5656797 0.8246250 0.0000000 0.5656797 0.8246250 0.0000000 0.5656797 0.8246250 0.0000000 0.5656797 0.0000000 -1.0000000 0.0000000 0.0000000 -1.0000000 0.0000000 0.0000000 -1.0000000 0.0000000 0.0000000 -1.0000000 0.0000000 0.0000000 -1.0000000 0.0000000 0.0000000 -1.0000000 0.0000000 0.0000000 -1.0000000 0.0000000 -0.0000000 1.0000000 -0.0000000 -0.0000000 1.0000000 -0.0000000 -0.0000000 1.0000000 -0.0000000 -0.0000000 1.0000000 -0.0000000 -0.0000000 1.0000000 -0.0000000 -0.0000000 1.0000000 -0.0000000 -0.0000000 1.0000000 -0.0000000 0.0000000 -1.0000000 0.0000000 0.0000000 -1.0000000 0.0000000 0.0000000 -1.0000000 0.0000000 0.0000000 -1.0000000 0.0000000 0.0000000 -1.0000000 0.0000000 0.0000000 -1.0000000 0.0000000 0.0000000 -1.0000000 0.0000000 1.0000000 -0.0000000 0.0000000 1.0000000 -0.0000000 0.0000000 1.0000000 -0.0000000 0.0000000 1.0000000 -0.0000000 0.0000000 -0.7472201 0.0000000 -0.6645767 -0.7472201 0.0000000 -0.6645767 -0.7472201 0.0000000 -0.6645767 -0.7472201 0.0000000 -0.6645767 -1.0000000 0.0000000 -0.0000000 -1.0000000 0.0000000 -0.0000000 -1.0000000 0.0000000 -0.0000000 -1.0000000 0.0000000 -0.0000000 0.0000000 0.0000000 -1.0000000 0.0000000 0.0000000 -1.0000000 0.0000000 0.0000000 -1.0000000 0.0000000 0.0000000 -1.0000000</float_array>
                    <technique_common>
                        <accessor count="41" source="#ID39" stride="3">
                            <param name="X" type="float" />
                            <param name="Y" type="float" />
                            <param name="Z" type="float" />
                        </accessor>
                    </technique_common>
                </source>
                <vertices id="ID37">
                    <input semantic="POSITION" source="#ID35" />
                    <input semantic="NORMAL" source="#ID36" />
                </vertices>
                <triangles count="20" material="Material3">
                    <input offset="0" semantic="VERTEX" source="#ID37" />
                    <p>0 1 2 1 0 3 11 12 13 12 14 13 13 14 15 15 14 16 17 16 14 18 19 20 19 18 21 21 18 22 22 18 23 22 23 24 25 26 27 26 25 28 29 30 31 30 29 32 33 34 35 34 33 36 37 38 39 38 37 40</p>
                </triangles>
                <triangles count="5" material="Material2">
                    <input offset="0" semantic="VERTEX" source="#ID37" />
                    <p>4 5 6 5 4 7 7 4 8 8 4 9 8 9 10</p>
                </triangles>
            </mesh>
        </geometry>
        <geometry id="ID43">
            <mesh>
                <source id="ID44">
                    <float_array id="ID47" count="24">-18.0952523 -18.0952523 0.0000000 -18.0952523 18.0952523 0.0000000 -25.5905512 0.0000000 0.0000000 -0.0000000 -25.5905512 0.0000000 0.0000000 25.5905512 0.0000000 18.0952523 -18.0952523 0.0000000 18.0952523 18.0952523 0.0000000 25.5905512 0.0000000 0.0000000</float_array>
                    <technique_common>
                        <accessor count="8" source="#ID47" stride="3">
                            <param name="X" type="float" />
                            <param name="Y" type="float" />
                            <param name="Z" type="float" />
                        </accessor>
                    </technique_common>
                </source>
                <source id="ID45">
                    <float_array id="ID48" count="24">-0.0000000 -0.0000000 1.0000000 -0.0000000 -0.0000000 1.0000000 -0.0000000 -0.0000000 1.0000000 -0.0000000 -0.0000000 1.0000000 -0.0000000 -0.0000000 1.0000000 -0.0000000 -0.0000000 1.0000000 -0.0000000 -0.0000000 1.0000000 -0.0000000 -0.0000000 1.0000000</float_array>
                    <technique_common>
                        <accessor count="8" source="#ID48" stride="3">
                            <param name="X" type="float" />
                            <param name="Y" type="float" />
                            <param name="Z" type="float" />
                        </accessor>
                    </technique_common>
                </source>
                <vertices id="ID46">
                    <input semantic="POSITION" source="#ID44" />
                    <input semantic="NORMAL" source="#ID45" />
                </vertices>
                <triangles count="6" material="Material2">
                    <input offset="0" semantic="VERTEX" source="#ID46" />
                    <p>0 1 2 1 0 3 1 3 4 4 3 5 4 5 6 6 5 7</p>
                </triangles>
            </mesh>
        </geometry>
        <geometry id="ID49">
            <mesh>
                <source id="ID52">
                    <float_array id="ID55" count="114">18.0952523 18.0952523 0.0000000 25.5905512 0.0000000 61.0236220 25.5905512 0.0000000 0.0000000 18.0952523 18.0952523 61.0236220 0.0000000 25.5905512 61.0236220 18.0952523 18.0952523 0.0000000 0.0000000 25.5905512 0.0000000 18.0952523 18.0952523 61.0236220 25.5905512 0.0000000 0.0000000 18.0952523 -18.0952523 61.0236220 18.0952523 -18.0952523 0.0000000 25.5905512 0.0000000 61.0236220 -18.0952523 18.0952523 61.0236220 0.0000000 25.5905512 0.0000000 -18.0952523 18.0952523 0.0000000 0.0000000 25.5905512 61.0236220 18.0952523 -18.0952523 61.0236220 -0.0000000 -25.5905512 0.0000000 18.0952523 -18.0952523 0.0000000 -0.0000000 -25.5905512 61.0236220 -18.0952523 18.0952523 61.0236220 -25.5905512 0.0000000 0.0000000 -25.5905512 0.0000000 61.0236220 -18.0952523 18.0952523 0.0000000 -0.0000000 -25.5905512 61.0236220 -18.0952523 -18.0952523 0.0000000 -0.0000000 -25.5905512 0.0000000 -18.0952523 -18.0952523 61.0236220 -18.0952523 -18.0952523 61.0236220 -20.4478163 -12.4156604 44.6252185 -18.0952523 -18.0952523 0.0000000 -25.5905512 0.0000000 61.0236220 -21.9544440 -8.7783394 44.6252185 -23.4610716 -5.1410184 44.6252185 -23.4610716 -5.1410184 36.7512027 -20.4478163 -12.4156604 36.7512027 -25.5905512 0.0000000 0.0000000 -21.9544440 -8.7783394 36.7512027</float_array>
                    <technique_common>
                        <accessor count="38" source="#ID55" stride="3">
                            <param name="X" type="float" />
                            <param name="Y" type="float" />
                            <param name="Z" type="float" />
                        </accessor>
                    </technique_common>
                </source>
                <source id="ID53">
                    <float_array id="ID56" count="114">0.9238795 0.3826834 -0.0000000 0.9238795 0.3826834 -0.0000000 0.9238795 0.3826834 -0.0000000 0.9238795 0.3826834 -0.0000000 0.3826834 0.9238795 -0.0000000 0.3826834 0.9238795 -0.0000000 0.3826834 0.9238795 -0.0000000 0.3826834 0.9238795 -0.0000000 0.9238795 -0.3826834 -0.0000000 0.9238795 -0.3826834 -0.0000000 0.9238795 -0.3826834 -0.0000000 0.9238795 -0.3826834 -0.0000000 -0.3826834 0.9238795 -0.0000000 -0.3826834 0.9238795 -0.0000000 -0.3826834 0.9238795 -0.0000000 -0.3826834 0.9238795 -0.0000000 0.3826834 -0.9238795 0.0000000 0.3826834 -0.9238795 0.0000000 0.3826834 -0.9238795 0.0000000 0.3826834 -0.9238795 0.0000000 -0.9238795 0.3826834 0.0000000 -0.9238795 0.3826834 0.0000000 -0.9238795 0.3826834 0.0000000 -0.9238795 0.3826834 0.0000000 -0.3826834 -0.9238795 0.0000000 -0.3826834 -0.9238795 0.0000000 -0.3826834 -0.9238795 0.0000000 -0.3826834 -0.9238795 0.0000000 -0.9238795 -0.3826834 0.0000000 -0.9238795 -0.3826834 0.0000000 -0.9238795 -0.3826834 0.0000000 -0.9238795 -0.3826834 0.0000000 -0.9238795 -0.3826834 0.0000000 -0.9238795 -0.3826834 0.0000000 -0.9238795 -0.3826834 0.0000000 -0.9238795 -0.3826834 0.0000000 -0.9238795 -0.3826834 0.0000000 -0.9238795 -0.3826834 0.0000000</float_array>
                    <technique_common>
                        <accessor count="38" source="#ID56" stride="3">
                            <param name="X" type="float" />
                            <param name="Y" type="float" />
                            <param name="Z" type="float" />
                        </accessor>
                    </technique_common>
                </source>
                <vertices id="ID54">
                    <input semantic="POSITION" source="#ID52" />
                    <input semantic="NORMAL" source="#ID53" />
                </vertices>
                <triangles count="24" material="Material2">
                    <input offset="0" semantic="VERTEX" source="#ID54" />
                    <p>0 1 2 1 0 3 4 5 6 5 4 7 8 9 10 9 8 11 12 13 14 13 12 15 16 17 18 17 16 19 20 21 22 21 20 23 24 25 26 25 24 27 28 29 30 29 28 31 29 31 32 32 31 33 33 31 34 30 35 36 35 30 29 36 35 37 36 37 34 36 34 31</p>
                </triangles>
            </mesh>
        </geometry>
        <geometry id="ID57">
            <mesh>
                <source id="ID58">
                    <float_array id="ID61" count="195">18.0952523 -18.0952523 61.0236220 -0.0000000 0.0000000 61.0236220 -0.0000000 -25.5905512 61.0236220 17.6998276 -17.6998276 66.3441968 -0.0000000 0.0000000 61.0236220 18.0952523 -18.0952523 61.0236220 14.6393666 -14.6393666 76.0653706 9.0476261 -9.0476261 83.1856895 1.8914689 -1.8914689 86.4739855 -0.0000000 0.0000000 86.4739855 25.5905512 0.0000000 61.0236220 -0.0000000 -25.0313362 66.3441968 -0.0000000 0.0000000 61.0236220 -0.0000000 -25.5905512 61.0236220 -0.0000000 -20.7031908 76.0653706 -0.0000000 -12.7952756 83.1856895 -0.0000000 -2.6749410 86.4739855 -0.0000000 0.0000000 86.4739855 -18.0952523 -18.0952523 61.0236220 25.0313362 0.0000000 66.3441968 -0.0000000 0.0000000 61.0236220 25.5905512 0.0000000 61.0236220 -0.0000000 0.0000000 86.4739855 20.7031908 0.0000000 76.0653706 12.7952756 0.0000000 83.1856895 2.6749410 -0.0000000 86.4739855 18.0952523 18.0952523 61.0236220 -0.0000000 0.0000000 86.4739855 -0.0000000 0.0000000 61.0236220 1.8914689 1.8914689 86.4739855 9.0476261 9.0476261 83.1856895 14.6393666 14.6393666 76.0653706 17.6998276 17.6998276 66.3441968 0.0000000 25.5905512 61.0236220 -0.0000000 0.0000000 86.4739855 -0.0000000 0.0000000 61.0236220 -0.0000000 2.6749410 86.4739855 -0.0000000 12.7952756 83.1856895 -0.0000000 20.7031908 76.0653706 -0.0000000 25.0313362 66.3441968 -17.6998276 17.6998276 66.3441968 -0.0000000 0.0000000 61.0236220 -18.0952523 18.0952523 61.0236220 -0.0000000 0.0000000 86.4739855 -14.6393666 14.6393666 76.0653706 -9.0476261 9.0476261 83.1856895 -1.8914689 1.8914689 86.4739855 -25.0313362 -0.0000000 66.3441968 -0.0000000 0.0000000 61.0236220 -25.5905512 0.0000000 61.0236220 -0.0000000 0.0000000 86.4739855 -20.7031908 -0.0000000 76.0653706 -12.7952756 -0.0000000 83.1856895 -2.6749410 0.0000000 86.4739855 -17.6998276 -17.6998276 66.3441968 -0.0000000 0.0000000 61.0236220 -18.0952523 -18.0952523 61.0236220 -14.6393666 -14.6393666 76.0653706 -9.0476261 -9.0476261 83.1856895 -1.8914689 -1.8914689 86.4739855 -0.0000000 0.0000000 86.4739855 18.0952523 18.0952523 61.0236220 -25.5905512 0.0000000 61.0236220 0.0000000 25.5905512 61.0236220 -18.0952523 18.0952523 61.0236220</float_array>
                    <technique_common>
                        <accessor count="65" source="#ID61" stride="3">
                            <param name="X" type="float" />
                            <param name="Y" type="float" />
                            <param name="Z" type="float" />
                        </accessor>
                    </technique_common>
                </source>
                <source id="ID59">
                    <float_array id="ID62" count="195">-0.0000000 -0.0000000 1.0000000 -0.0000000 -0.0000000 1.0000000 -0.0000000 -0.0000000 1.0000000 -0.7071068 -0.7071068 0.0000000 -0.7071068 -0.7071068 0.0000000 -0.7071068 -0.7071068 0.0000000 -0.7071068 -0.7071068 0.0000000 -0.7071068 -0.7071068 0.0000000 -0.7071068 -0.7071068 0.0000000 -0.7071068 -0.7071068 0.0000000 -0.0000000 -0.0000000 1.0000000 -1.0000000 0.0000000 0.0000000 -1.0000000 0.0000000 0.0000000 -1.0000000 0.0000000 0.0000000 -1.0000000 0.0000000 0.0000000 -1.0000000 0.0000000 0.0000000 -1.0000000 0.0000000 0.0000000 -1.0000000 0.0000000 0.0000000 -0.0000000 -0.0000000 1.0000000 0.0000000 -1.0000000 -0.0000000 0.0000000 -1.0000000 -0.0000000 0.0000000 -1.0000000 -0.0000000 0.0000000 -1.0000000 -0.0000000 0.0000000 -1.0000000 -0.0000000 0.0000000 -1.0000000 -0.0000000 0.0000000 -1.0000000 -0.0000000 0.7071068 -0.7071068 0.0000000 0.7071068 -0.7071068 0.0000000 0.7071068 -0.7071068 0.0000000 0.7071068 -0.7071068 0.0000000 0.7071068 -0.7071068 0.0000000 0.7071068 -0.7071068 0.0000000 0.7071068 -0.7071068 0.0000000 1.0000000 0.0000000 0.0000000 1.0000000 0.0000000 0.0000000 1.0000000 0.0000000 0.0000000 1.0000000 0.0000000 0.0000000 1.0000000 0.0000000 0.0000000 1.0000000 0.0000000 0.0000000 1.0000000 0.0000000 0.0000000 0.7071068 0.7071068 0.0000000 0.7071068 0.7071068 0.0000000 0.7071068 0.7071068 0.0000000 0.7071068 0.7071068 0.0000000 0.7071068 0.7071068 0.0000000 0.7071068 0.7071068 0.0000000 0.7071068 0.7071068 0.0000000 -0.0000000 1.0000000 0.0000000 -0.0000000 1.0000000 0.0000000 -0.0000000 1.0000000 0.0000000 -0.0000000 1.0000000 0.0000000 -0.0000000 1.0000000 0.0000000 -0.0000000 1.0000000 0.0000000 -0.0000000 1.0000000 0.0000000 -0.7071068 0.7071068 0.0000000 -0.7071068 0.7071068 0.0000000 -0.7071068 0.7071068 0.0000000 -0.7071068 0.7071068 0.0000000 -0.7071068 0.7071068 0.0000000 -0.7071068 0.7071068 0.0000000 -0.7071068 0.7071068 0.0000000 -0.0000000 -0.0000000 1.0000000 -0.0000000 -0.0000000 1.0000000 -0.0000000 -0.0000000 1.0000000 -0.0000000 -0.0000000 1.0000000</float_array>
                    <technique_common>
                        <accessor count="65" source="#ID62" stride="3">
                            <param name="X" type="float" />
                            <param name="Y" type="float" />
                            <param name="Z" type="float" />
                        </accessor>
                    </technique_common>
                </source>
                <vertices id="ID60">
                    <input semantic="POSITION" source="#ID58" />
                    <input semantic="NORMAL" source="#ID59" />
                </vertices>
                <triangles count="48" material="Material2">
                    <input offset="0" semantic="VERTEX" source="#ID60" />
                    <p>0 1 2 3 4 5 4 3 6 4 6 7 4 7 8 4 8 9 10 1 0 11 12 13 12 11 14 12 14 15 12 15 16 12 16 17 1 18 2 19 20 21 20 19 22 22 19 23 22 23 24 22 24 25 26 27 28 27 26 29 29 26 30 30 26 31 31 26 32 33 34 35 34 33 36 36 33 37 37 33 38 38 33 39 40 41 42 41 40 43 43 40 44 43 44 45 43 45 46 47 48 49 48 47 50 50 47 51 50 51 52 50 52 53 54 55 56 55 54 57 55 57 58 55 58 59 55 59 60 10 61 1 1 62 18 61 63 1 63 64 1 1 64 62</p>
                </triangles>
            </mesh>
        </geometry>
        <geometry id="ID63">
            <mesh>
                <source id="ID66">
                    <float_array id="ID69" count="288">14.6393666 -14.6393666 76.0653706 -0.0000000 -25.0313362 66.3441968 17.6998276 -17.6998276 66.3441968 -0.0000000 -20.7031908 76.0653706 -0.0000000 -20.7031908 76.0653706 -17.6998276 -17.6998276 66.3441968 -0.0000000 -25.0313362 66.3441968 -14.6393666 -14.6393666 76.0653706 -0.0000000 -25.0313362 66.3441968 18.0952523 -18.0952523 61.0236220 -0.0000000 -25.5905512 61.0236220 17.6998276 -17.6998276 66.3441968 17.6998276 -17.6998276 66.3441968 -0.0000000 -25.0313362 66.3441968 18.0952523 -18.0952523 61.0236220 -0.0000000 -25.5905512 61.0236220 25.0313362 0.0000000 66.3441968 14.6393666 -14.6393666 76.0653706 17.6998276 -17.6998276 66.3441968 20.7031908 0.0000000 76.0653706 -14.6393666 -14.6393666 76.0653706 -25.0313362 -0.0000000 66.3441968 -17.6998276 -17.6998276 66.3441968 -20.7031908 -0.0000000 76.0653706 -17.6998276 -17.6998276 66.3441968 -0.0000000 -25.5905512 61.0236220 -18.0952523 -18.0952523 61.0236220 -0.0000000 -25.0313362 66.3441968 -0.0000000 -25.0313362 66.3441968 -17.6998276 -17.6998276 66.3441968 -0.0000000 -25.5905512 61.0236220 -18.0952523 -18.0952523 61.0236220 17.6998276 -17.6998276 66.3441968 25.5905512 0.0000000 61.0236220 18.0952523 -18.0952523 61.0236220 25.0313362 0.0000000 66.3441968 25.0313362 0.0000000 66.3441968 17.6998276 -17.6998276 66.3441968 25.5905512 0.0000000 61.0236220 18.0952523 -18.0952523 61.0236220 17.6998276 17.6998276 66.3441968 20.7031908 0.0000000 76.0653706 25.0313362 0.0000000 66.3441968 14.6393666 14.6393666 76.0653706 -20.7031908 -0.0000000 76.0653706 -17.6998276 17.6998276 66.3441968 -25.0313362 -0.0000000 66.3441968 -14.6393666 14.6393666 76.0653706 -25.5905512 0.0000000 61.0236220 -17.6998276 -17.6998276 66.3441968 -18.0952523 -18.0952523 61.0236220 -25.0313362 -0.0000000 66.3441968 -25.0313362 -0.0000000 66.3441968 -25.5905512 0.0000000 61.0236220 -17.6998276 -17.6998276 66.3441968 -18.0952523 -18.0952523 61.0236220 17.6998276 17.6998276 66.3441968 25.5905512 0.0000000 61.0236220 25.0313362 0.0000000 66.3441968 18.0952523 18.0952523 61.0236220 18.0952523 18.0952523 61.0236220 17.6998276 17.6998276 66.3441968 25.5905512 0.0000000 61.0236220 25.0313362 0.0000000 66.3441968 -0.0000000 20.7031908 76.0653706 17.6998276 17.6998276 66.3441968 -0.0000000 25.0313362 66.3441968 14.6393666 14.6393666 76.0653706 -14.6393666 14.6393666 76.0653706 -0.0000000 25.0313362 66.3441968 -17.6998276 17.6998276 66.3441968 -0.0000000 20.7031908 76.0653706 -25.5905512 0.0000000 61.0236220 -17.6998276 17.6998276 66.3441968 -25.0313362 -0.0000000 66.3441968 -18.0952523 18.0952523 61.0236220 -18.0952523 18.0952523 61.0236220 -25.5905512 0.0000000 61.0236220 -17.6998276 17.6998276 66.3441968 -25.0313362 -0.0000000 66.3441968 17.6998276 17.6998276 66.3441968 0.0000000 25.5905512 61.0236220 18.0952523 18.0952523 61.0236220 -0.0000000 25.0313362 66.3441968 -0.0000000 25.0313362 66.3441968 17.6998276 17.6998276 66.3441968 0.0000000 25.5905512 61.0236220 18.0952523 18.0952523 61.0236220 -0.0000000 25.0313362 66.3441968 -18.0952523 18.0952523 61.0236220 0.0000000 25.5905512 61.0236220 -17.6998276 17.6998276 66.3441968 -17.6998276 17.6998276 66.3441968 -0.0000000 25.0313362 66.3441968 -18.0952523 18.0952523 61.0236220 0.0000000 25.5905512 61.0236220</float_array>
                    <technique_common>
                        <accessor count="96" source="#ID69" stride="3">
                            <param name="X" type="float" />
                            <param name="Y" type="float" />
                            <param name="Z" type="float" />
                        </accessor>
                    </technique_common>
                </source>
                <source id="ID67">
                    <float_array id="ID70" count="288">0.3539122 -0.8544196 0.3804121 0.3539122 -0.8544196 0.3804121 0.3539122 -0.8544196 0.3804121 0.3539122 -0.8544196 0.3804121 -0.3539122 -0.8544196 0.3804121 -0.3539122 -0.8544196 0.3804121 -0.3539122 -0.8544196 0.3804121 -0.3539122 -0.8544196 0.3804121 -0.3808919 0.9195544 -0.0966491 -0.3808919 0.9195544 -0.0966491 -0.3808919 0.9195544 -0.0966491 -0.3808919 0.9195544 -0.0966491 0.3808919 -0.9195544 0.0966491 0.3808919 -0.9195544 0.0966491 0.3808919 -0.9195544 0.0966491 0.3808919 -0.9195544 0.0966491 0.8544196 -0.3539122 0.3804121 0.8544196 -0.3539122 0.3804121 0.8544196 -0.3539122 0.3804121 0.8544196 -0.3539122 0.3804121 -0.8544196 -0.3539122 0.3804121 -0.8544196 -0.3539122 0.3804121 -0.8544196 -0.3539122 0.3804121 -0.8544196 -0.3539122 0.3804121 0.3808919 0.9195544 -0.0966491 0.3808919 0.9195544 -0.0966491 0.3808919 0.9195544 -0.0966491 0.3808919 0.9195544 -0.0966491 -0.3808919 -0.9195544 0.0966491 -0.3808919 -0.9195544 0.0966491 -0.3808919 -0.9195544 0.0966491 -0.3808919 -0.9195544 0.0966491 -0.9195544 0.3808919 -0.0966491 -0.9195544 0.3808919 -0.0966491 -0.9195544 0.3808919 -0.0966491 -0.9195544 0.3808919 -0.0966491 0.9195544 -0.3808919 0.0966491 0.9195544 -0.3808919 0.0966491 0.9195544 -0.3808919 0.0966491 0.9195544 -0.3808919 0.0966491 0.8544196 0.3539122 0.3804121 0.8544196 0.3539122 0.3804121 0.8544196 0.3539122 0.3804121 0.8544196 0.3539122 0.3804121 -0.8544196 0.3539122 0.3804121 -0.8544196 0.3539122 0.3804121 -0.8544196 0.3539122 0.3804121 -0.8544196 0.3539122 0.3804121 0.9195544 0.3808919 -0.0966491 0.9195544 0.3808919 -0.0966491 0.9195544 0.3808919 -0.0966491 0.9195544 0.3808919 -0.0966491 -0.9195544 -0.3808919 0.0966491 -0.9195544 -0.3808919 0.0966491 -0.9195544 -0.3808919 0.0966491 -0.9195544 -0.3808919 0.0966491 -0.9195544 -0.3808919 -0.0966491 -0.9195544 -0.3808919 -0.0966491 -0.9195544 -0.3808919 -0.0966491 -0.9195544 -0.3808919 -0.0966491 0.9195544 0.3808919 0.0966491 0.9195544 0.3808919 0.0966491 0.9195544 0.3808919 0.0966491 0.9195544 0.3808919 0.0966491 0.3539122 0.8544196 0.3804121 0.3539122 0.8544196 0.3804121 0.3539122 0.8544196 0.3804121 0.3539122 0.8544196 0.3804121 -0.3539122 0.8544196 0.3804121 -0.3539122 0.8544196 0.3804121 -0.3539122 0.8544196 0.3804121 -0.3539122 0.8544196 0.3804121 0.9195544 -0.3808919 -0.0966491 0.9195544 -0.3808919 -0.0966491 0.9195544 -0.3808919 -0.0966491 0.9195544 -0.3808919 -0.0966491 -0.9195544 0.3808919 0.0966491 -0.9195544 0.3808919 0.0966491 -0.9195544 0.3808919 0.0966491 -0.9195544 0.3808919 0.0966491 -0.3808919 -0.9195544 -0.0966491 -0.3808919 -0.9195544 -0.0966491 -0.3808919 -0.9195544 -0.0966491 -0.3808919 -0.9195544 -0.0966491 0.3808919 0.9195544 0.0966491 0.3808919 0.9195544 0.0966491 0.3808919 0.9195544 0.0966491 0.3808919 0.9195544 0.0966491 0.3808919 -0.9195544 -0.0966491 0.3808919 -0.9195544 -0.0966491 0.3808919 -0.9195544 -0.0966491 0.3808919 -0.9195544 -0.0966491 -0.3808919 0.9195544 0.0966491 -0.3808919 0.9195544 0.0966491 -0.3808919 0.9195544 0.0966491 -0.3808919 0.9195544 0.0966491</float_array>
                    <technique_common>
                        <accessor count="96" source="#ID70" stride="3">
                            <param name="X" type="float" />
                            <param name="Y" type="float" />
                            <param name="Z" type="float" />
                        </accessor>
                    </technique_common>
                </source>
                <vertices id="ID68">
                    <input semantic="POSITION" source="#ID66" />
                    <input semantic="NORMAL" source="#ID67" />
                </vertices>
                <triangles count="32" material="Material3">
                    <input offset="0" semantic="VERTEX" source="#ID68" />
                    <p>0 1 2 1 0 3 4 5 6 5 4 7 12 13 14 15 14 13 16 17 18 17 16 19 20 21 22 21 20 23 28 29 30 31 30 29 36 37 38 39 38 37 40 41 42 41 40 43 44 45 46 45 44 47 52 53 54 55 54 53 60 61 62 63 62 61 64 65 66 65 64 67 68 69 70 69 68 71 76 77 78 79 78 77 84 85 86 87 86 85 92 93 94 95 94 93</p>
                </triangles>
                <triangles count="16" material="Material2">
                    <input offset="0" semantic="VERTEX" source="#ID68" />
                    <p>8 9 10 9 8 11 24 25 26 25 24 27 32 33 34 33 32 35 48 49 50 49 48 51 56 57 58 57 56 59 72 73 74 73 72 75 80 81 82 81 80 83 88 89 90 89 88 91</p>
                </triangles>
            </mesh>
        </geometry>
        <geometry id="ID71">
            <mesh>
                <source id="ID72">
                    <float_array id="ID75" count="411">1.8914689 -1.8914689 86.4739855 -0.0000000 -12.7952756 83.1856895 -0.0000000 -2.6749410 86.4739855 9.0476261 -9.0476261 83.1856895 9.0476261 -9.0476261 83.1856895 1.8914689 -1.8914689 86.4739855 -0.0000000 -12.7952756 83.1856895 -0.0000000 -2.6749410 86.4739855 1.8914689 -1.8914689 86.4739855 -0.0000000 0.0000000 86.4739855 -0.0000000 -2.6749410 86.4739855 2.6749410 -0.0000000 86.4739855 9.0476261 -9.0476261 83.1856895 1.8914689 -1.8914689 86.4739855 12.7952756 0.0000000 83.1856895 12.7952756 0.0000000 83.1856895 2.6749410 -0.0000000 86.4739855 9.0476261 -9.0476261 83.1856895 1.8914689 -1.8914689 86.4739855 9.0476261 -9.0476261 83.1856895 -0.0000000 -20.7031908 76.0653706 -0.0000000 -12.7952756 83.1856895 14.6393666 -14.6393666 76.0653706 14.6393666 -14.6393666 76.0653706 9.0476261 -9.0476261 83.1856895 -0.0000000 -20.7031908 76.0653706 -0.0000000 -12.7952756 83.1856895 -1.8914689 -1.8914689 86.4739855 -0.0000000 -12.7952756 83.1856895 -9.0476261 -9.0476261 83.1856895 -0.0000000 -2.6749410 86.4739855 -0.0000000 -2.6749410 86.4739855 -1.8914689 -1.8914689 86.4739855 -0.0000000 -12.7952756 83.1856895 -9.0476261 -9.0476261 83.1856895 2.6749410 -0.0000000 86.4739855 -1.8914689 -1.8914689 86.4739855 9.0476261 9.0476261 83.1856895 2.6749410 -0.0000000 86.4739855 1.8914689 1.8914689 86.4739855 12.7952756 0.0000000 83.1856895 12.7952756 0.0000000 83.1856895 9.0476261 9.0476261 83.1856895 2.6749410 -0.0000000 86.4739855 1.8914689 1.8914689 86.4739855 12.7952756 0.0000000 83.1856895 14.6393666 -14.6393666 76.0653706 9.0476261 -9.0476261 83.1856895 20.7031908 0.0000000 76.0653706 20.7031908 0.0000000 76.0653706 12.7952756 0.0000000 83.1856895 14.6393666 -14.6393666 76.0653706 9.0476261 -9.0476261 83.1856895 -9.0476261 -9.0476261 83.1856895 -0.0000000 -20.7031908 76.0653706 -14.6393666 -14.6393666 76.0653706 -0.0000000 -12.7952756 83.1856895 -0.0000000 -12.7952756 83.1856895 -9.0476261 -9.0476261 83.1856895 -0.0000000 -20.7031908 76.0653706 -14.6393666 -14.6393666 76.0653706 -2.6749410 0.0000000 86.4739855 -9.0476261 -9.0476261 83.1856895 -12.7952756 -0.0000000 83.1856895 -1.8914689 -1.8914689 86.4739855 -1.8914689 -1.8914689 86.4739855 -2.6749410 0.0000000 86.4739855 -9.0476261 -9.0476261 83.1856895 -12.7952756 -0.0000000 83.1856895 1.8914689 1.8914689 86.4739855 -2.6749410 0.0000000 86.4739855 9.0476261 9.0476261 83.1856895 -0.0000000 2.6749410 86.4739855 -0.0000000 12.7952756 83.1856895 1.8914689 1.8914689 86.4739855 1.8914689 1.8914689 86.4739855 9.0476261 9.0476261 83.1856895 -0.0000000 2.6749410 86.4739855 -0.0000000 12.7952756 83.1856895 14.6393666 14.6393666 76.0653706 12.7952756 0.0000000 83.1856895 9.0476261 9.0476261 83.1856895 20.7031908 0.0000000 76.0653706 20.7031908 0.0000000 76.0653706 14.6393666 14.6393666 76.0653706 12.7952756 0.0000000 83.1856895 9.0476261 9.0476261 83.1856895 -12.7952756 -0.0000000 83.1856895 -14.6393666 -14.6393666 76.0653706 -20.7031908 -0.0000000 76.0653706 -9.0476261 -9.0476261 83.1856895 -9.0476261 -9.0476261 83.1856895 -12.7952756 -0.0000000 83.1856895 -14.6393666 -14.6393666 76.0653706 -20.7031908 -0.0000000 76.0653706 -9.0476261 9.0476261 83.1856895 -2.6749410 0.0000000 86.4739855 -12.7952756 -0.0000000 83.1856895 -1.8914689 1.8914689 86.4739855 -1.8914689 1.8914689 86.4739855 -9.0476261 9.0476261 83.1856895 -2.6749410 0.0000000 86.4739855 -12.7952756 -0.0000000 83.1856895 -0.0000000 2.6749410 86.4739855 -1.8914689 1.8914689 86.4739855 -0.0000000 12.7952756 83.1856895 -1.8914689 1.8914689 86.4739855 -9.0476261 9.0476261 83.1856895 -0.0000000 2.6749410 86.4739855 -0.0000000 2.6749410 86.4739855 -0.0000000 12.7952756 83.1856895 -1.8914689 1.8914689 86.4739855 -9.0476261 9.0476261 83.1856895 14.6393666 14.6393666 76.0653706 -0.0000000 12.7952756 83.1856895 -0.0000000 20.7031908 76.0653706 9.0476261 9.0476261 83.1856895 9.0476261 9.0476261 83.1856895 14.6393666 14.6393666 76.0653706 -0.0000000 12.7952756 83.1856895 -0.0000000 20.7031908 76.0653706 -14.6393666 14.6393666 76.0653706 -12.7952756 -0.0000000 83.1856895 -20.7031908 -0.0000000 76.0653706 -9.0476261 9.0476261 83.1856895 -9.0476261 9.0476261 83.1856895 -14.6393666 14.6393666 76.0653706 -12.7952756 -0.0000000 83.1856895 -20.7031908 -0.0000000 76.0653706 -0.0000000 20.7031908 76.0653706 -9.0476261 9.0476261 83.1856895 -14.6393666 14.6393666 76.0653706 -0.0000000 12.7952756 83.1856895 -0.0000000 12.7952756 83.1856895 -0.0000000 20.7031908 76.0653706 -9.0476261 9.0476261 83.1856895 -14.6393666 14.6393666 76.0653706</float_array>
                    <technique_common>
                        <accessor count="137" source="#ID75" stride="3">
                            <param name="X" type="float" />
                            <param name="Y" type="float" />
                            <param name="Z" type="float" />
                        </accessor>
                    </technique_common>
                </source>
                <source id="ID73">
                    <float_array id="ID76" count="411">-0.1269632 0.3065163 -0.9433600 -0.1269632 0.3065163 -0.9433600 -0.1269632 0.3065163 -0.9433600 -0.1269632 0.3065163 -0.9433600 0.1269632 -0.3065163 0.9433600 0.1269632 -0.3065163 0.9433600 0.1269632 -0.3065163 0.9433600 0.1269632 -0.3065163 0.9433600 -0.0000000 -0.0000000 1.0000000 -0.0000000 -0.0000000 1.0000000 -0.0000000 -0.0000000 1.0000000 -0.3065163 0.1269632 -0.9433600 -0.3065163 0.1269632 -0.9433600 -0.3065163 0.1269632 -0.9433600 -0.3065163 0.1269632 -0.9433600 0.3065163 -0.1269632 0.9433600 0.3065163 -0.1269632 0.9433600 0.3065163 -0.1269632 0.9433600 0.3065163 -0.1269632 0.9433600 -0.2670938 0.6448215 -0.7161468 -0.2670938 0.6448215 -0.7161468 -0.2670938 0.6448215 -0.7161468 -0.2670938 0.6448215 -0.7161468 0.2670938 -0.6448215 0.7161468 0.2670938 -0.6448215 0.7161468 0.2670938 -0.6448215 0.7161468 0.2670938 -0.6448215 0.7161468 0.1269632 0.3065163 -0.9433600 0.1269632 0.3065163 -0.9433600 0.1269632 0.3065163 -0.9433600 0.1269632 0.3065163 -0.9433600 -0.1269632 -0.3065163 0.9433600 -0.1269632 -0.3065163 0.9433600 -0.1269632 -0.3065163 0.9433600 -0.1269632 -0.3065163 0.9433600 -0.0000000 -0.0000000 1.0000000 -0.0000000 -0.0000000 1.0000000 -0.3065163 -0.1269632 -0.9433600 -0.3065163 -0.1269632 -0.9433600 -0.3065163 -0.1269632 -0.9433600 -0.3065163 -0.1269632 -0.9433600 0.3065163 0.1269632 0.9433600 0.3065163 0.1269632 0.9433600 0.3065163 0.1269632 0.9433600 0.3065163 0.1269632 0.9433600 -0.6448215 0.2670938 -0.7161468 -0.6448215 0.2670938 -0.7161468 -0.6448215 0.2670938 -0.7161468 -0.6448215 0.2670938 -0.7161468 0.6448215 -0.2670938 0.7161468 0.6448215 -0.2670938 0.7161468 0.6448215 -0.2670938 0.7161468 0.6448215 -0.2670938 0.7161468 0.2670938 0.6448215 -0.7161468 0.2670938 0.6448215 -0.7161468 0.2670938 0.6448215 -0.7161468 0.2670938 0.6448215 -0.7161468 -0.2670938 -0.6448215 0.7161468 -0.2670938 -0.6448215 0.7161468 -0.2670938 -0.6448215 0.7161468 -0.2670938 -0.6448215 0.7161468 0.3065163 0.1269632 -0.9433600 0.3065163 0.1269632 -0.9433600 0.3065163 0.1269632 -0.9433600 0.3065163 0.1269632 -0.9433600 -0.3065163 -0.1269632 0.9433600 -0.3065163 -0.1269632 0.9433600 -0.3065163 -0.1269632 0.9433600 -0.3065163 -0.1269632 0.9433600 -0.0000000 -0.0000000 1.0000000 -0.0000000 -0.0000000 1.0000000 -0.1269632 -0.3065163 -0.9433600 -0.1269632 -0.3065163 -0.9433600 -0.1269632 -0.3065163 -0.9433600 -0.1269632 -0.3065163 -0.9433600 0.1269632 0.3065163 0.9433600 0.1269632 0.3065163 0.9433600 0.1269632 0.3065163 0.9433600 0.1269632 0.3065163 0.9433600 -0.6448215 -0.2670938 -0.7161468 -0.6448215 -0.2670938 -0.7161468 -0.6448215 -0.2670938 -0.7161468 -0.6448215 -0.2670938 -0.7161468 0.6448215 0.2670938 0.7161468 0.6448215 0.2670938 0.7161468 0.6448215 0.2670938 0.7161468 0.6448215 0.2670938 0.7161468 0.6448215 0.2670938 -0.7161468 0.6448215 0.2670938 -0.7161468 0.6448215 0.2670938 -0.7161468 0.6448215 0.2670938 -0.7161468 -0.6448215 -0.2670938 0.7161468 -0.6448215 -0.2670938 0.7161468 -0.6448215 -0.2670938 0.7161468 -0.6448215 -0.2670938 0.7161468 0.3065163 -0.1269632 -0.9433600 0.3065163 -0.1269632 -0.9433600 0.3065163 -0.1269632 -0.9433600 0.3065163 -0.1269632 -0.9433600 -0.3065163 0.1269632 0.9433600 -0.3065163 0.1269632 0.9433600 -0.3065163 0.1269632 0.9433600 -0.3065163 0.1269632 0.9433600 -0.0000000 -0.0000000 1.0000000 -0.0000000 -0.0000000 1.0000000 0.1269632 -0.3065163 -0.9433600 0.1269632 -0.3065163 -0.9433600 0.1269632 -0.3065163 -0.9433600 0.1269632 -0.3065163 -0.9433600 -0.1269632 0.3065163 0.9433600 -0.1269632 0.3065163 0.9433600 -0.1269632 0.3065163 0.9433600 -0.1269632 0.3065163 0.9433600 -0.2670938 -0.6448215 -0.7161468 -0.2670938 -0.6448215 -0.7161468 -0.2670938 -0.6448215 -0.7161468 -0.2670938 -0.6448215 -0.7161468 0.2670938 0.6448215 0.7161468 0.2670938 0.6448215 0.7161468 0.2670938 0.6448215 0.7161468 0.2670938 0.6448215 0.7161468 0.6448215 -0.2670938 -0.7161468 0.6448215 -0.2670938 -0.7161468 0.6448215 -0.2670938 -0.7161468 0.6448215 -0.2670938 -0.7161468 -0.6448215 0.2670938 0.7161468 -0.6448215 0.2670938 0.7161468 -0.6448215 0.2670938 0.7161468 -0.6448215 0.2670938 0.7161468 0.2670938 -0.6448215 -0.7161468 0.2670938 -0.6448215 -0.7161468 0.2670938 -0.6448215 -0.7161468 0.2670938 -0.6448215 -0.7161468 -0.2670938 0.6448215 0.7161468 -0.2670938 0.6448215 0.7161468 -0.2670938 0.6448215 0.7161468 -0.2670938 0.6448215 0.7161468</float_array>
                    <technique_common>
                        <accessor count="137" source="#ID76" stride="3">
                            <param name="X" type="float" />
                            <param name="Y" type="float" />
                            <param name="Z" type="float" />
                        </accessor>
                    </technique_common>
                </source>
                <vertices id="ID74">
                    <input semantic="POSITION" source="#ID72" />
                    <input semantic="NORMAL" source="#ID73" />
                </vertices>
                <triangles count="32" material="Material2">
                    <input offset="0" semantic="VERTEX" source="#ID74" />
                    <p>0 1 2 1 0 3 11 12 13 12 11 14 19 20 21 20 19 22 27 28 29 28 27 30 37 38 39 38 37 40 45 46 47 46 45 48 53 54 55 54 53 56 61 62 63 62 61 64 71 72 73 72 71 74 79 80 81 80 79 82 87 88 89 88 87 90 95 96 97 96 95 98 105 106 107 106 105 108 113 114 115 114 113 116 121 122 123 122 121 124 129 130 131 130 129 132</p>
                </triangles>
                <triangles count="40" material="Material3">
                    <input offset="0" semantic="VERTEX" source="#ID74" />
                    <p>4 5 6 7 6 5 8 9 10 15 16 17 18 17 16 23 24 25 26 25 24 31 32 33 34 33 32 35 9 8 9 36 10 41 42 43 44 43 42 49 50 51 52 51 50 57 58 59 60 59 58 65 66 67 68 67 66 35 69 9 9 70 36 75 76 77 78 77 76 83 84 85 86 85 84 91 92 93 94 93 92 99 100 101 102 101 100 69 103 9 9 104 70 109 110 111 112 111 110 117 118 119 120 119 118 125 126 127 128 127 126 9 103 104 133 134 135 136 135 134</p>
                </triangles>
            </mesh>
        </geometry>
    </library_geometries>
    <library_materials>
        <material id="ID6" name="Lily_Blonde">
            <instance_effect url="#ID7" />
        </material>
        <material id="ID23" name="material_1">
            <instance_effect url="#ID24" />
        </material>
        <material id="ID29" name="material">
            <instance_effect url="#ID28" />
        </material>
        <material id="ID33" name="material_2">
            <instance_effect url="#ID34" />
        </material>
        <material id="ID50" name="__">
            <instance_effect url="#ID51" />
        </material>
        <material id="ID64" name="Heather_Soles">
            <instance_effect url="#ID65" />
        </material>
    </library_materials>
    <library_effects>
        <effect id="ID7">
            <profile_COMMON>
                <technique sid="COMMON">
                    <lambert>
                        <diffuse>
                            <color>0.8000000 0.6509804 0.4274510 1.0000000</color>
                        </diffuse>
                    </lambert>
                </technique>
            </profile_COMMON>
        </effect>
        <effect id="ID24">
            <profile_COMMON>
                <technique sid="COMMON">
                    <lambert>
                        <diffuse>
                            <color>0.5568627 0.2156863 0.1686275 1.0000000</color>
                        </diffuse>
                    </lambert>
                </technique>
            </profile_COMMON>
        </effect>
        <effect id="ID28">
            <profile_COMMON>
                <technique sid="COMMON">
                    <lambert>
                        <diffuse>
                            <color>1.0000000 1.0000000 1.0000000 1.0000000</color>
                        </diffuse>
                    </lambert>
                </technique>
            </profile_COMMON>
        </effect>
        <effect id="ID34">
            <profile_COMMON>
                <technique sid="COMMON">
                    <lambert>
                        <diffuse>
                            <color>0.2117647 0.2313725 0.7450980 1.0000000</color>
                        </diffuse>
                    </lambert>
                </technique>
            </profile_COMMON>
        </effect>
        <effect id="ID51">
            <profile_COMMON>
                <technique sid="COMMON">
                    <lambert>
                        <diffuse>
                            <color>1.0000000 1.0000000 1.0000000 1.0000000</color>
                        </diffuse>
                    </lambert>
                </technique>
            </profile_COMMON>
        </effect>
        <effect id="ID65">
            <profile_COMMON>
                <technique sid="COMMON">
                    <lambert>
                        <diffuse>
                            <color>0.1176471 0.1176471 0.1176471 1.0000000</color>
                        </diffuse>
                    </lambert>
                </technique>
            </profile_COMMON>
        </effect>
    </library_effects>
    <scene>
        <instance_visual_scene url="#ID2" />
    </scene>
</COLLADA>
